<?xml version="1.0" encoding="UTF-8" standalone="no"?>
<!-- Created with Inkscape (http://www.inkscape.org/) -->

<svg
   width="320mm"
   height="180mm"
   viewBox="0 0 320 180"
   version="1.1"
   id="svg1"
   inkscape:version="1.4 (e7c3feb100, 2024-10-09)"
   sodipodi:docname="background.svg"
   xmlns:inkscape="http://www.inkscape.org/namespaces/inkscape"
   xmlns:sodipodi="http://sodipodi.sourceforge.net/DTD/sodipodi-0.dtd"
   xmlns="http://www.w3.org/2000/svg"
   xmlns:svg="http://www.w3.org/2000/svg">
  <sodipodi:namedview
     id="namedview1"
     pagecolor="#ffffff"
     bordercolor="#000000"
     borderopacity="0.25"
     inkscape:showpageshadow="2"
     inkscape:pageopacity="0.0"
     inkscape:pagecheckerboard="0"
     inkscape:deskcolor="#d1d1d1"
     inkscape:document-units="mm"
     inkscape:zoom="0.35355339"
     inkscape:cx="302.6417"
     inkscape:cy="765.08953"
     inkscape:window-width="1920"
     inkscape:window-height="1008"
     inkscape:window-x="0"
     inkscape:window-y="0"
     inkscape:window-maximized="1"
     inkscape:current-layer="layer1" />
  <defs
     id="defs1" />
  <g
     inkscape:label="Layer 1"
     inkscape:groupmode="layer"
     id="layer1"
     transform="translate(-19.329161,-25.648312)">
    <rect
       style="fill:#bbb6a0;stroke-width:0.264999;fill-opacity:1"
       id="rect1"
       width="320"
       height="180"
       x="19.329161"
       y="25.648312" />
    <rect
       style="fill:#847948;fill-opacity:1;stroke-width:0.264999"
       id="rect2"
       width="4"
       height="180"
       x="43.329163"
       y="25.648312" />
    <rect
       style="fill:#847948;fill-opacity:1;stroke-width:0.264999"
       id="rect2-5"
       width="4"
       height="180"
       x="105.32916"
       y="25.648312" />
    <rect
       style="fill:#847948;fill-opacity:1;stroke-width:0.264999"
       id="rect2-5-2"
       width="4"
       height="180"
       x="169.32916"
       y="25.648312" />
    <rect
       style="fill:#847948;fill-opacity:1;stroke-width:0.264999"
       id="rect2-5-2-7"
       width="4"
       height="180"
       x="233.32916"
       y="25.648312" />
    <rect
       style="fill:#847948;fill-opacity:1;stroke-width:0.264999"
       id="rect2-5-2-6"
       width="4"
       height="180"
       x="297.32916"
       y="25.648312" />
    <rect
       style="fill:#847948;fill-opacity:1;stroke-width:0.341912"
       id="rect2-6"
       width="3.7457442"
       height="319.98938"
       x="-63.378799"
       y="19.510677"
       transform="matrix(0.00286392,-0.9999959,0.99999968,7.9462174e-4,0,0)" />
    <rect
       style="fill:#847948;fill-opacity:1;stroke-width:0.341912"
       id="rect2-6-9"
       width="3.7457442"
       height="319.98938"
       x="-103.37887"
       y="19.625237"
       transform="matrix(0.00286392,-0.9999959,0.99999968,7.9462174e-4,0,0)" />
    <rect
       style="fill:#847948;fill-opacity:1;stroke-width:0.341912"
       id="rect2-6-9-3"
       width="3.7457442"
       height="319.98938"
       x="-143.37894"
       y="19.739794"
       transform="matrix(0.00286392,-0.9999959,0.99999968,7.9462174e-4,0,0)" />
    <rect
       style="fill:#847948;fill-opacity:1;stroke-width:0.341912"
       id="rect2-6-9-2"
       width="3.7457442"
       height="319.98938"
       x="-183.37901"
       y="19.854351"
       transform="matrix(0.00286392,-0.9999959,0.99999968,7.9462174e-4,0,0)" />
    <g
       id="g20">
      <rect
         style="fill:#4c4c4c;fill-opacity:1;stroke-width:0.265307"
         id="rect3"
         width="132"
         height="84"
         x="169.32916"
         y="59.648312" />
      <rect
         style="fill:#65bfde;fill-opacity:1;stroke-width:0.264999"
         id="rect4"
         width="60"
         height="34"
         x="173.32916"
         y="65.648315" />
      <rect
         style="fill:#65bfde;fill-opacity:1;stroke-width:0.264999"
         id="rect4-7"
         width="60"
         height="34"
         x="237.32916"
         y="65.648315" />
      <rect
         style="fill:#65bfde;fill-opacity:1;stroke-width:0.264999"
         id="rect4-2"
         width="60"
         height="34"
         x="173.32916"
         y="103.64832" />
      <rect
         style="fill:#65bfde;fill-opacity:1;stroke-width:0.264999"
         id="rect4-7-9"
         width="60"
         height="34"
         x="237.32916"
         y="103.64832" />
      <path
         style="fill:#65bfde;fill-opacity:1;stroke-width:0.264999"
         id="path4"
         d="m 189.92377,77.899911 c 1.48014,2.150157 0.36459,0.838062 2.62684,2.674067 1.39211,1.129813 1.74444,1.697291 3.35374,2.477574 3.23363,1.567855 0.30797,-0.353139 2.39123,1.095804 2.34779,0.06945 -0.50357,0.05791 1.00977,-0.100862 0.14495,-0.01521 0.56645,0.10033 0.43578,0.03576 -0.22168,-0.109557 -0.4749,-0.204986 -0.72052,-0.176478 -0.0882,0.01024 -0.0951,0.198822 -0.0349,0.264163 0.16588,0.180155 0.41898,0.253643 0.62848,0.380466 0.87429,0.488899 -0.1249,-0.01574 1.12318,0.37932 0.28566,0.09042 0.54274,0.262292 0.83215,0.339854 0.2733,0.07325 0.5612,0.07281 0.84185,0.108784 0.84658,0.108521 0.47404,0.06919 1.254,0.134215 2.43137,-0.09243 -1.58765,0.128722 1.27115,-0.304747 0.33611,-0.05096 0.68179,0.06287 1.01955,0.02439 0.33261,-0.03788 0.64037,-0.208095 0.97233,-0.251237 0.25228,-0.03279 0.54364,0.154971 0.76276,0.02574 0.29135,-0.171836 0.39436,-0.549663 0.59154,-0.824494 0.0824,-0.0043 -0.14864,-0.67613 0.0891,-0.802111 0.0938,-0.04971 0.22084,0.0168 0.31722,-0.02766 0.10871,-0.05014 0.17523,-0.163253 0.26597,-0.24134 0.0703,-0.06053 0.19653,-0.08382 0.21706,-0.174321 0.0795,-0.350379 0.0443,-0.717184 0.0665,-1.075779 1.47707,-2.57909 1.39025,-2.107867 2.30796,-5.211543 0.25852,-0.8743 0.33607,-1.79922 0.63605,-2.660174 0.16037,-0.460267 0.48794,-0.843904 0.73191,-1.265857 0.17356,-0.625144 -0.71053,-0.870606 -0.88409,-0.245459 v 0 c -0.12887,0.439497 -0.27841,0.873456 -0.38661,1.318496 -0.21551,0.886536 -0.30102,1.806678 -0.58399,2.674045 -0.2982,0.914038 -1.84414,4.204364 -2.30753,5.208244 -0.18773,0.261546 -0.37546,0.523092 -0.5632,0.784638 0.0136,-0.01807 0.0476,-0.07573 0.0407,-0.05421 -0.0216,0.06768 -0.031,0.149818 -0.0856,0.195154 -0.14212,0.117809 -0.36877,0.127939 -0.48096,0.274529 -0.17561,0.229463 -0.0683,0.596143 -0.26531,0.825257 0.002,0.09151 0.0707,0.210007 0.006,0.274547 -0.54217,0.539052 -0.89308,0.105715 -1.59302,0.233334 -0.32469,0.0592 -0.5801,0.350909 -0.90684,0.397441 -0.25972,0.03699 -0.51394,-0.105677 -0.77091,-0.158515 -0.19062,0.04881 -0.38123,0.09761 -0.57185,0.146418 -0.14448,-0.02199 -0.28731,-0.06351 -0.43343,-0.06592 -0.35213,-0.0058 -1.02833,0.155974 -1.34359,0.07633 -0.7457,-0.188399 -0.70481,-0.533265 -1.36665,-0.756849 -0.1409,-0.0476 -0.29728,-0.0099 -0.44591,-0.01487 -0.059,0.263088 0.0326,-0.140386 0.0241,-0.146918 -0.29514,-0.227264 -0.69583,-0.284295 -0.99908,-0.500613 -0.0761,-0.05425 0.23543,-0.09447 0.27997,-0.01236 0.0959,0.176853 -0.7691,0.874713 -0.57874,-0.171376 -1.41294,0.08595 -0.85856,0.222673 -2.35611,-0.615585 -0.95525,-0.534704 -2.5635,-1.532252 -3.38265,-2.242904 -0.59418,-0.51548 -1.91522,-2.066108 -2.46829,-2.699822 -0.32061,-0.400772 -0.88739,0.05265 -0.56677,0.453422 z" />
      <path
         style="fill:#cce9f4;fill-opacity:1;stroke-width:0.264999"
         id="path5"
         d="m 193.42903,77.492108 c 3.80794,-0.0693 7.54323,-0.88261 11.25754,-1.650005 1.48615,-0.325376 2.19885,-0.465889 3.61859,-0.82963 0.36382,-0.09321 0.72577,-0.193947 1.08585,-0.300678 0.18947,-0.05616 0.40046,-0.07444 0.5623,-0.187843 0.056,-0.03924 -0.15933,-0.01151 -0.1923,-0.07142 -0.14565,-0.26457 -0.20982,-0.566407 -0.31472,-0.849611 -0.18424,0.0042 -1.27814,0.283252 -1.21271,0.590785 0.0593,0.278524 0.26155,0.505902 0.39232,0.758854 0.55748,0.01246 0.82326,0.02093 1.34683,0.0208 0.0844,-0.02894 0.17944,0.02484 0.26434,0.0013 0.002,-5.29e-4 -0.11509,-0.120557 -0.10123,-0.09676 0.0435,0.0747 0.10222,0.139451 0.15333,0.209179 0.35099,0.410041 0.83426,0.660633 1.32182,0.8723 0.2728,0.11843 0.18526,0.111157 0.33891,0.111514 -0.0553,-0.169614 -0.0677,-0.359879 -0.16591,-0.508842 -0.0379,-0.05756 -0.13226,-0.05097 -0.20114,-0.04811 -0.17875,0.0074 -0.35388,0.05286 -0.53095,0.07844 -1.00438,0.145134 -2.01216,0.259945 -3.01748,0.399468 -2.18294,0.36423 -4.4338,0.496691 -6.5489,1.191889 0.6179,0.128202 0.0437,-0.0725 0.50169,0.932392 0.021,0.04601 0.10057,-0.01331 0.14929,-0.02679 0.13885,-0.03845 0.37369,-0.183441 0.33198,-0.355635 -0.0647,-0.267149 -0.30654,-0.456361 -0.4598,-0.68454 -0.83943,-0.003 -1.66047,0.184192 -2.49795,0.214027 -1.33716,-0.07808 -2.66548,0.111511 -3.97483,0.363122 -0.8133,0.145375 -1.5987,0.419555 -2.41445,0.551764 -0.19045,0.03087 -0.38257,0.05035 -0.57385,0.07552 -0.44884,0.09167 -0.94855,0.06534 -1.39854,0.13471 -0.0236,0.0037 0.0923,0.01254 0.0692,0.01878 -0.05,0.01355 -0.2744,0.009 -0.3307,0.0087 -0.38062,0.02826 -0.76709,-0.0222 -1.14768,0.0047 -0.11887,0.0084 -0.46296,0.06534 -0.5849,0.08464 -0.65066,0.06148 -1.28014,0.230064 -1.90644,0.409893 -0.11368,0.03585 -0.69288,0.202882 -0.81135,0.296114 -0.51316,0.403833 -0.13279,0.977246 0.5586,1.259543 0.58676,0.239578 1.26304,0.111625 1.89618,0.140174 0.92679,0.04179 1.85486,0.04719 2.7823,0.07078 3.98318,0.02836 7.96841,-0.182539 11.9304,-0.590571 1.62244,-0.16709 3.77921,-0.437097 5.43727,-0.809257 0.35511,-0.07971 0.69531,-0.215329 1.04296,-0.322993 -0.45589,-0.27409 -0.42994,-0.98161 -0.85451,-1.259168 -0.27195,-0.17779 -0.65046,-0.019 -0.97473,0.0013 -0.70859,0.04451 -1.4417,0.168055 -2.1214,0.375946 -0.33966,0.103889 -0.66462,0.250846 -0.99694,0.376269 -0.8515,0.34362 -1.64734,0.818523 -2.50349,1.151144 -1.61561,0.627682 -2.98306,0.963695 -4.69028,1.379958 -2.07413,0.505725 -3.87803,0.878497 -5.96065,1.325693 -4.14788,0.836652 -0.70717,0.179787 -3.80541,0.697415 -0.0545,0.0091 -0.1904,-8e-6 -0.15926,0.04559 0.43213,0.632772 0.70816,0.380534 1.41953,0.194511 0.58416,-0.15276 1.1586,-0.340513 1.7379,-0.51077 0.68408,-0.202311 1.36722,-0.407839 2.05225,-0.60693 1.66557,-0.484074 2.08245,-0.599136 3.69748,-1.023131 0.40817,-0.107159 0.81651,-0.21382 1.22624,-0.314833 0.71311,-0.175805 0.89456,-0.07682 0.47796,-0.218075 -0.11068,-0.221035 -0.15094,-0.494858 -0.33205,-0.663104 -0.0985,-0.0915 -0.2684,-0.0209 -0.40283,-0.01958 -0.33345,0.0033 -0.66638,0.03296 -0.99985,0.03329 -1.2632,0.0013 -3.06911,-0.07799 -4.2632,-0.110987 -0.98845,-0.02732 -1.9771,-0.04719 -2.96565,-0.07079 -2.07854,-0.01003 -2.77872,-0.03803 -4.88619,0.05522 -0.58681,0.02595 -1.17464,0.05295 -1.75786,0.122729 -0.25247,0.03021 -0.71279,-0.0762 -0.74213,0.176369 -0.17689,1.522769 1.46843,1.178017 2.19772,1.22782 2.24835,-0.01008 2.01283,0.02003 4.26365,-0.106857 1.21767,-0.06864 1.52563,-0.06765 2.51743,-0.233286 0.13861,-0.02315 0.41011,0.05649 0.41314,-0.08401 0.006,-0.26978 -0.26408,-0.470662 -0.39612,-0.705991 -0.21754,0.02373 -0.43744,0.03136 -0.65262,0.07117 -0.34018,0.06293 -0.67381,0.15722 -1.01056,0.236492 -1.06512,0.25073 -2.12479,0.523235 -3.20359,0.709324 0.48313,-0.0056 0.16124,0.841224 0.62482,0.908611 0.005,7.94e-4 0.82852,-0.05036 0.78211,0.0054 0.0278,0.0013 0.094,0.02974 0.0833,0.0041 -0.0371,-0.08873 -0.11749,-0.152307 -0.1769,-0.227936 -0.0322,-0.04096 -0.0461,-0.115866 -0.0979,-0.121809 -0.0254,-0.0029 -0.68399,0.303385 -0.73219,0.325387 0.0998,0.184955 -0.3574,0.0024 -0.35185,0.127083 0.0148,0.332075 -0.066,0.750313 0.17211,0.982255 0.2093,0.203874 0.58355,0.04255 0.87571,0.0384 0.79529,-0.0113 1.90649,-0.140179 2.6675,-0.214675 0.54175,-0.07521 1.08548,-0.13728 1.62524,-0.225616 0.85672,-0.140208 1.76439,-0.328758 2.60651,-0.558983 0.23947,-0.06547 0.47681,-0.139864 0.70967,-0.22594 0.3696,-0.136631 0.39189,-0.09016 0.23919,-0.199509 -0.16166,-0.319853 -0.293,-0.656929 -0.48497,-0.959552 -0.022,-0.03471 -0.15829,-0.0209 -0.12331,7.94e-4 0.20275,0.125116 0.49731,0.127386 0.64002,0.318167 0.11018,0.147304 -0.10572,0.409308 0.0107,0.551754 0.0839,0.102627 0.2632,-0.03274 0.39345,-0.05717 0.17301,-0.03245 0.34385,-0.07558 0.51578,-0.113366 0.59964,-0.148643 1.21354,-0.282189 1.7976,-0.48831 0.0809,-0.02856 0.80491,-0.330906 0.85804,-0.352993 1.23574,-0.489861 2.38019,-1.167149 3.46459,-1.930313 0.20072,-0.147635 0.37205,-0.34894 0.61111,-0.437899 0.26028,-0.09686 0.17979,-0.03334 0.46683,-0.147706 0.0923,-0.03676 0.17964,-0.08472 0.26945,-0.127077 0.25276,-0.182274 0.54622,-0.322267 0.30257,-0.815197 -0.22349,-0.452154 -1.46004,-0.685308 -1.75297,-0.746104 -1.87773,-0.389712 -2.53516,-0.397838 -4.56623,-0.608568 -2.53497,-0.185997 -5.08498,-0.232976 -7.61935,-0.01016 -0.54759,0.04814 -1.10043,0.08016 -1.63697,0.199737 -0.1298,0.02893 -0.33828,0.104793 -0.32117,0.236675 0.0537,0.41397 0.33383,0.765225 0.50074,1.147836 0.3516,0.04625 0.70118,0.111927 1.05479,0.138748 0.63079,0.04785 1.26356,0.06704 1.8959,0.08507 2.0265,0.0578 4.05626,0.0024 6.07643,-0.168296 0.72151,-0.06099 1.44018,-0.151876 2.16026,-0.227814 0.62028,-0.09994 1.24402,-0.180406 1.86085,-0.299807 0.5466,-0.105807 1.53528,-0.324895 2.10516,-0.601874 0.46491,-0.225965 0.5039,-0.724832 0.073,-1.226519 -0.15945,-0.185637 -0.48671,-0.05148 -0.73007,-0.07723 -0.82941,0.04201 -1.43814,-0.07193 -0.35485,1.088043 0.0784,0.08394 0.22979,-0.0021 0.34444,-0.0089 0.1459,-0.0087 0.29124,-0.02508 0.43686,-0.03761 1.07501,-0.08091 2.15407,-0.04418 3.23083,-0.07789 0.77495,-0.02426 0.98792,-0.04573 1.71783,-0.09749 0.0926,-0.02498 -0.2608,-1.334225 -0.35338,-1.309237 v 0 c -0.76952,-0.02974 -0.97475,-0.05183 -1.78725,-0.0163 -1.08906,0.04761 -2.16531,0.205717 -3.24,0.378878 -0.14545,0.02798 -0.29213,0.05015 -0.43633,0.08393 -0.11489,0.02692 -0.32755,-0.01934 -0.34015,0.09798 -0.13388,1.246563 0.30469,1.08296 1.07758,1.032182 0.0719,-0.338368 0.15045,-0.689084 0.0808,-1.03676 -0.0177,-0.08825 -0.17537,-0.04758 -0.26534,-0.05 -0.27352,-0.0074 -0.54732,0.0068 -0.82057,0.0208 -1.19276,0.06126 -2.02779,0.149722 -3.25375,0.259064 -0.77052,0.07302 -3.51094,0.334838 -4.27701,0.398912 -1.97228,0.164968 -3.9551,0.199411 -5.91648,0.479825 -0.15309,0.370967 -0.42298,0.713232 -0.45927,1.112903 -0.0115,0.126886 0.22105,0.131575 0.34284,0.168971 0.85141,0.261403 1.87184,0.266515 2.70998,0.312375 2.40967,0.131847 3.03406,0.107222 5.51195,0.128722 3.34417,-0.04305 1.78145,-0.0067 4.68088,-0.09676 0.3723,-0.01156 0.75464,0.05199 1.1169,-0.03466 0.0847,-0.02024 0.6695,-1.072026 0.21746,-0.75133 -0.5206,0.207976 -1.03002,0.436989 -1.51873,0.713283 -1.12803,0.601143 -2.22656,1.254135 -3.35083,1.862171 -0.26822,0.131575 -0.41162,0.219922 -0.68918,0.297858 -0.60543,0.169989 -1.24189,0.23001 -1.83934,0.434448 -0.38728,0.123897 -1.48288,0.32493 -1.33375,1.017971 0.0549,0.255268 0.43274,0.297477 0.67119,0.403892 0.31263,0.139525 1.34567,-1.111885 -0.007,-1.027022 -0.34098,-0.150662 -0.95371,-0.05145 -1.2652,-0.02268 -1.4315,0.13222 -2.85052,0.374729 -4.26257,0.638887 -0.63712,0.139618 -1.78038,0.361277 -2.44977,0.598236 -0.0787,0.02784 -0.19165,0.06373 -0.20301,0.146378 -0.0446,0.324453 -0.0423,0.666522 0.048,0.981331 0.0513,0.178745 0.56451,-0.376258 0.53677,-0.151905 0.36471,-0.170323 0.82383,-0.360579 1.04056,-0.728271 0.24334,-0.412842 0.26725,-0.673264 -0.0297,-1.074248 -0.0792,-0.106944 -0.22538,-0.141581 -0.33806,-0.21237 -0.24492,-0.02831 -0.4884,-0.07485 -0.73474,-0.08492 -0.68858,-0.02814 -2.1402,0.235617 -1.31778,1.339535 0.12307,0.165198 0.40626,0.06853 0.60939,0.102786 0.19502,0.0013 0.39037,0.01595 0.58504,0.0043 0.99919,-0.05966 2.00645,-0.279726 2.9556,-0.590765 0.3458,-0.113321 0.69219,-0.231386 1.01947,-0.390477 0.28414,-0.13812 0.53791,-0.331536 0.80686,-0.497303 0.0157,-0.373462 0.16806,-0.766752 0.047,-1.120381 -0.0671,-0.195847 -0.3347,-0.268851 -0.53728,-0.311478 -0.54259,-0.11417 -1.10279,-0.123549 -1.65663,-0.150167 -2.02935,-0.09753 -4.06421,0.06318 -6.07217,0.350465 -1.02783,0.2418 -2.20977,0.0759 -2.071,1.668211 0.021,0.240789 0.42924,0.236371 0.66526,0.28847 0.55432,0.122359 1.12188,0.180205 1.68728,0.23083 2.34987,0.210397 3.55868,0.144254 6.05856,0.146487 2.40721,-0.119094 4.83135,-0.186613 7.19253,-0.726824 0.12216,-0.02795 1.56584,-0.383349 1.71989,-0.737449 0.13112,-0.301419 -0.0228,-0.657013 -0.0342,-0.98552 -0.24946,-0.07407 -0.49153,-0.180464 -0.74839,-0.222208 -0.67624,-0.109897 -1.64995,0.0013 -2.27028,0.100227 -2.0492,0.326536 -4.04819,0.928698 -5.96021,1.729129 -0.67349,0.340363 -3.95757,1.583166 -2.76978,3.067407 0.27952,0.349295 0.82889,0.359468 1.27001,0.433999 1.4247,0.240712 2.88803,-0.03972 4.29407,-0.187399 1.01028,-0.207235 2.03029,-0.371695 3.03085,-0.621708 1.83521,-0.458568 3.96194,-1.149101 5.70714,-1.915768 1.80769,-0.794115 1.7285,-0.926354 3.23029,-1.769901 0.30878,-0.173437 0.63081,-0.322157 0.94621,-0.483238 0.96957,-0.324593 0.78922,-0.303122 1.82246,-0.486034 0.33608,-0.05949 0.6759,-0.09607 1.01245,-0.152834 0.8698,-0.146688 1.43771,-0.0259 1.41571,-1.341464 -0.003,-0.184325 -0.34154,-0.138898 -0.51231,-0.208346 -0.4034,-0.05607 -0.80378,-0.141613 -1.21019,-0.168212 -1.7731,-0.116046 -3.97941,-0.05447 -5.69643,0.03437 -3.92573,0.20311 -7.83629,0.633114 -11.7279,1.178846 -0.85748,0.15309 -1.71921,0.283985 -2.57243,0.459274 -0.3361,0.06905 -0.72858,0.05381 -0.99247,0.273116 -0.22759,0.189132 -0.21804,0.550204 -0.32856,0.824704 -0.0136,0.03382 -0.0803,0.10151 -0.0438,0.100205 0.0595,-0.0021 0.75872,-0.253454 0.77344,-0.258632 0.56956,-0.193659 1.13555,-0.362173 1.73971,-0.404448 0.25128,-0.03321 0.4993,-0.05074 0.75207,-0.06824 0.0778,-0.0054 0.15558,-0.01199 0.23336,-0.01807 0.0631,-0.0049 0.12938,0.0054 0.18933,-0.015 0.0386,-0.0131 -0.0813,-0.0053 -0.12195,-0.0079 0.27479,0.0024 0.56973,0.06485 0.83809,0.08318 0.52975,0.03617 1.06029,-0.0062 1.58339,-0.09279 0.20584,-0.04331 0.41287,-0.08126 0.61751,-0.129926 0.31992,-0.07608 0.63059,-0.188418 0.95111,-0.261935 0.46848,-0.107453 0.95393,-0.124762 1.42814,-0.192111 1.272,-0.173337 2.5394,-0.412846 3.82483,-0.45634 0.41029,-0.03239 0.8173,-0.06749 1.22379,-0.134126 0.007,-0.0011 0.67482,-0.120062 0.71528,-0.138784 0.0263,-0.01214 -0.0468,-0.03395 -0.0702,-0.05093 -0.53394,-1.718347 -0.21828,-0.05427 -0.0116,-0.945735 0.0116,-0.04984 -0.10045,0.02217 -0.14768,0.04183 -0.0676,0.02815 -0.18525,0.02837 -0.19511,0.10093 -0.0434,0.319953 -0.0932,0.677985 0.05,0.967381 0.0692,0.13993 0.30878,0.04645 0.46317,0.06967 0.81061,0.05002 1.61045,-0.02138 2.41709,-0.117973 1.45992,-0.174804 2.9138,-0.418935 4.34795,-0.743169 0.40138,-0.09218 0.80239,-0.185989 1.20414,-0.276537 0.67566,-0.152284 1.14947,-0.227989 1.79317,-0.449498 0.19646,-0.06761 0.94627,-0.342461 1.05825,-0.608156 0.0994,-0.23578 0.0161,-0.511474 0.0242,-0.767209 -0.0611,-0.0646 -0.11269,-0.139862 -0.18341,-0.193794 -0.0754,-0.05749 -0.16542,-0.09274 -0.24959,-0.13639 -0.37662,-0.195337 -0.79152,-0.320027 -1.13339,-0.575207 -0.2922,-0.195953 0.0661,0.0613 -0.30703,-0.298739 -0.15568,-0.150209 -0.3682,-0.184105 -0.57301,-0.196029 -0.39704,-0.04071 -0.78502,-0.05625 -1.1856,-0.04479 -0.0893,0.0026 -0.18397,-0.0122 -0.26717,0.02029 -0.0384,0.01498 0.0784,0.0254 0.1176,0.03811 0.0574,0.24738 0.15876,0.488548 0.17207,0.74214 0.004,0.06979 -0.15051,0.10409 -0.12427,0.168863 0.0226,0.05591 0.11837,-0.02381 0.17649,-0.03995 0.33972,-0.09427 0.67274,-0.213259 0.96679,-0.41267 -0.0214,-0.334023 0.10627,-0.714037 -0.0642,-1.002067 -0.0625,-0.105638 -1.26276,-0.112218 -1.27438,-0.111789 -1.66814,0.0615 -3.31312,0.393967 -4.96108,0.626181 -0.78514,0.146783 -1.57229,0.283133 -2.35541,0.440346 -1.44594,0.29028 -3.25377,0.698672 -4.6937,1.051335 -1.00873,0.247055 -2.12718,0.532855 -3.12941,0.854827 -0.16984,0.05456 -0.33299,0.128061 -0.49948,0.192092 -0.0728,0.01868 0.19149,1.047949 0.26426,1.029261 z" />
      <path
         style="fill:#cce9f4;fill-opacity:1;stroke-width:0.264999"
         id="path6"
         d="m 197.72917,77.131376 c 0.20902,0.04174 0.41514,0.102319 0.62704,0.125206 2.06379,0.22289 4.16439,0.0642 6.20596,-0.279451 0.43616,-0.07342 0.86763,-0.172391 1.30146,-0.258587 0.55448,-0.170699 2.84554,-0.574091 2.351,-1.711971 -0.0693,-0.159359 -0.28666,-0.196456 -0.42999,-0.294682 -0.17929,0.0033 -0.35971,-0.01035 -0.53788,0.0099 -0.42454,0.0483 -0.60182,0.47807 -0.4585,0.897516 0.0908,0.265692 0.57328,0.316286 0.78061,0.360575 0.71783,0.104415 1.44729,0.100197 2.17066,0.07574 0.0663,-0.0021 0.13202,-0.01318 0.19825,-0.01654 0.10621,-0.0054 0.223,0.03623 0.31889,-0.0098 0.04,-0.01916 -0.0564,-0.06839 -0.0846,-0.102592 -0.0582,-0.223033 0.01,-0.530939 -0.17472,-0.669094 -0.16324,-0.122227 -0.40526,0.04818 -0.6059,0.08461 -0.40424,0.07339 -0.80697,0.15548 -1.20801,0.24471 -1.58918,0.353592 -3.13672,0.819002 -4.69115,1.298814 -0.89389,0.313359 -1.83067,0.553571 -2.67101,1.005006 -0.0453,0.02434 -0.40249,0.226632 -0.44338,0.349295 -0.0643,0.19294 -0.075,0.39978 -0.11253,0.59967 0.11457,0.103812 0.23451,0.420876 0.34372,0.311433 1.3695,-1.372457 -0.47991,-0.974849 -0.98364,-0.884144 -0.4283,0.06668 -0.86014,0.07382 -1.27471,0.210155 -0.20929,0.05275 -0.37849,0.185505 -0.51832,0.313103 -0.0157,0.0082 -0.0315,0.01646 -0.0473,0.02469 -0.0513,0.05255 0.69189,0.778483 0.74323,0.725929 v 0 c 0.0292,-0.02598 0.0585,-0.05195 0.0878,-0.07792 -0.0375,0.04504 0.002,-0.0034 0.0905,-0.06786 0.0333,-0.02416 -0.0976,0.032 -0.0995,0.07313 -0.003,0.06127 0.17981,-0.09105 0.18211,-0.02652 0.42744,-0.02943 0.85656,-0.06504 1.27791,-0.144571 0.0158,-0.003 0.4743,-0.08939 0.48182,-0.09415 0.0352,-0.0223 -0.11554,0.02053 -0.12329,-0.0204 -0.007,-0.03891 0.0925,-0.0055 0.11183,-0.04007 0.16933,-0.303483 0.18597,-0.707022 0.43833,-0.945957 0.0935,-0.08856 0.16407,0.19862 0.24611,0.297931 -0.0474,0.177329 -0.1156,0.350367 -0.14214,0.531987 -0.003,0.02164 0.039,0.02582 0.0608,0.02458 0.0976,-0.0055 0.19326,-0.02952 0.28988,-0.04432 0.67318,-0.103121 0.80757,-0.115054 1.56575,-0.283728 0.43816,-0.09748 0.87291,-0.209717 1.30937,-0.314574 1.56165,-0.432901 3.12121,-0.870178 4.63359,-1.458653 0.37708,-0.146722 0.74796,-0.309756 1.11381,-0.482598 0.22263,-0.105179 0.50733,-0.150122 0.65008,-0.350742 0.18235,-0.256275 0.16492,-0.607055 0.24738,-0.910582 -0.0969,-0.08993 -0.17412,-0.207476 -0.29072,-0.269777 -0.27646,-0.147717 -1.10449,-0.128672 -1.25786,-0.131538 -0.49733,-0.0093 -0.98454,0.03161 -1.479,0.07622 -0.0959,0.01127 -0.21918,-0.03422 -0.28772,0.03381 -0.0495,0.04911 0.056,0.13408 0.0487,0.203417 -0.0211,0.200718 -0.083,0.395147 -0.13232,0.590849 -0.004,0.01516 -0.0397,0.0304 -0.0264,0.0387 0.0305,0.01913 0.36331,-0.06625 -0.1033,-0.03175 -0.24232,-0.459983 -0.11484,-0.08691 -0.0411,-0.778195 0.01,-0.09061 -0.20957,-0.0077 -0.41657,0.02716 -0.74355,0.12515 -0.86446,0.139358 -1.69862,0.26585 -1.46679,0.169312 -2.93546,0.320712 -4.40148,0.496716 -0.46957,0.05637 -0.93861,0.117089 -1.40792,0.175636 -0.24021,0.03915 -0.47917,0.08706 -0.72065,0.117469 -0.2149,0.02706 -0.43166,0.03656 -0.64749,0.05483 -0.0747,-0.02537 -0.43343,1.030682 -0.35875,1.05605 z" />
      <path
         style="fill:#cce9f4;fill-opacity:1;stroke-width:0.264999"
         id="path7"
         d="m 196.10601,78.570918 c -1.06712,-0.26008 -2.17514,-0.277844 -3.26768,-0.268396 -0.71396,0.01508 -1.43388,0.03979 -2.1389,0.16428 -0.015,0.0056 -0.061,0.01537 -0.045,0.01683 0.64067,0.05896 0.20597,-0.01352 0.15048,-0.01582 -0.20027,-0.0084 -0.75574,-0.01122 -0.9888,-0.01302 -0.80156,-0.03106 -1.60432,0.07164 -2.3991,0.104407 -0.0293,2.64e-4 -0.0588,0.0047 -0.0879,7.94e-4 -0.087,-0.01117 -0.15586,-0.08063 -0.23608,-0.11601 -0.10019,-0.04419 -0.2016,-0.08689 -0.3066,-0.117977 -0.24691,-0.07311 -0.37587,-0.07409 -0.62617,-0.0982 -0.25663,0.120735 -0.61434,0.269145 0.29657,0.757745 0.24043,0.128961 0.54083,-0.07277 0.8104,-0.114834 0.53292,-0.08316 1.06366,-0.179993 1.59693,-0.260818 0.77357,-0.117245 1.54895,-0.222242 2.32342,-0.333365 0.88532,-0.135025 1.77064,-0.270052 2.65596,-0.405077 1.94881,-0.329779 3.90724,-0.62979 5.83085,-1.09162 0.21037,-0.05051 0.50224,0.0019 0.62457,-0.176541 0.0804,-0.117226 -0.30918,-0.04361 -0.39709,-0.155295 -0.17431,-0.22148 -0.22392,-0.517316 -0.33589,-0.775975 -0.48979,0.05134 -0.97273,0.153966 -1.46183,0.209791 -5.16082,0.58906 3.349,-0.466598 -3.15978,0.330697 -2.02352,0.247873 -1.7568,0.223846 -3.70579,0.543542 -0.84958,0.165518 -1.46467,0.264882 -2.26984,0.481917 -0.13214,0.03562 -0.39308,-0.0054 -0.38898,0.131384 0.004,0.138015 0.3265,7.94e-4 0.39652,0.119798 0.62465,1.061683 -0.24961,0.959335 0.63962,0.926497 0.13783,-0.01574 0.27627,-0.02677 0.41349,-0.0472 0.18723,0.01963 0.34563,-0.09301 0.52224,-0.119475 0.0626,-0.0094 0.12666,-0.003 0.18995,-0.0013 0.19661,0.0055 0.39326,0.01148 0.58961,0.02299 0.41056,0.02405 0.82063,0.05578 1.23095,0.08367 4.81314,0.240644 9.64808,0.23945 14.43647,-0.360463 0.55194,-0.06915 1.0992,-0.171601 1.6488,-0.257403 0.11501,-0.06257 0.35073,-0.0569 0.34505,-0.187716 -0.0356,-0.818222 -0.45546,-0.902677 -1.07925,-0.841262 -0.41908,0.04127 -0.82793,0.155155 -1.23938,0.244872 -0.12003,0.02617 -2.90396,0.684213 -3.00774,0.708724 -1.33661,0.347548 -2.68316,0.659333 -4.04252,0.904658 -0.31739,0.05728 -0.63617,0.106727 -0.95499,0.155384 -0.65526,0.1 -0.50055,-0.08483 -0.66342,0.136253 -0.11113,0.294105 -0.0313,0.04518 0.17479,0.777639 0.008,0.02919 0.003,0.06784 0.0268,0.08695 0.0305,0.02477 0.14165,-7.94e-4 0.11456,0.02776 -0.0351,0.03685 -0.10146,0.01574 -0.15217,0.01177 -0.0129,-0.0011 0.0218,-0.0141 0.0327,-0.02117 -0.69153,-0.800018 0.0597,0.219163 -0.23304,-0.734237 -0.0162,-0.05281 -0.11065,-0.0038 -0.16572,5.29e-4 -0.37601,0.02949 -0.75212,0.08472 -1.1276,0.122037 -0.0797,0.02894 0.32948,1.156602 0.40922,1.127667 v 0 c 0.55745,-0.07258 1.90418,-0.20193 1.85008,-1.049914 -0.011,-0.172167 -0.19915,-0.281758 -0.29872,-0.422638 -0.0609,-0.0222 -0.11805,-0.06093 -0.18259,-0.06661 -0.14564,-0.01283 -1.03684,-0.01214 -1.09691,0.286274 -0.15348,0.76246 -0.0673,0.732504 0.31673,0.984964 0.52829,0.05839 0.96015,0.124246 1.49414,0.110178 1.78154,-0.04693 3.53067,-0.48437 5.2553,-0.88987 1.44841,-0.373177 1.58788,-0.379312 2.98444,-0.854081 0.27666,-0.09405 1.93909,-0.619249 2.12854,-1.04381 0.14717,-0.329811 0.0839,-0.821999 -0.1801,-1.068401 -0.29875,-0.27878 -0.80345,-0.149521 -1.20517,-0.224284 -0.59529,-0.04461 -1.18927,-0.113417 -1.78589,-0.133827 -4.07195,-0.139292 -8.19822,0.175623 -12.23662,0.682689 -0.675,0.08475 -1.34571,0.200729 -2.01857,0.301093 -0.39277,0.07037 -0.78554,0.14074 -1.17831,0.211111 -0.17515,0.0399 -0.34906,0.08577 -0.52547,0.119708 -0.25741,0.04953 -0.5239,0.02641 -0.78395,0.05121 -0.13711,0.01307 -0.27348,0.0331 -0.41022,0.04965 -0.56156,0.110323 -0.82686,0.04081 -0.70152,1.085834 0.0183,0.152265 0.29057,0.100811 0.44069,0.132114 0.48361,0.10083 1.0135,0.08172 1.49546,0.05725 0.48716,-0.02474 0.97254,-0.07692 1.45881,-0.115382 0.60141,-0.07673 1.2047,-0.139972 1.80424,-0.230201 1.48127,-0.22293 2.23378,-0.377798 3.66659,-0.725379 0.23911,-0.058 1.782,-0.462163 2.17926,-0.595386 0.21954,-0.07363 0.43018,-0.171508 0.64528,-0.257263 0.11253,-0.349615 0.41514,-0.689845 0.33759,-1.048845 -0.057,-0.26366 -1.3605,-0.372554 -1.41955,-0.374819 -2.06633,-0.07928 -4.12391,0.282519 -6.15672,0.587713 -2.22138,0.484791 -2.81347,0.54469 -4.89848,1.249702 -0.51344,0.173611 -1.01748,0.376544 -1.51105,0.600469 -0.29141,0.132204 -0.66401,0.198202 -0.83938,0.465862 -0.19177,0.292666 -0.17411,0.690526 -0.14688,1.039358 0.007,0.08904 0.15846,0.08247 0.23769,0.123711 0.0708,0.0051 0.42645,0.03099 0.49341,0.03396 0.0608,0.0027 0.12242,-0.0062 0.18269,0.0026 0.19574,0.02855 0.3274,0.20066 0.51598,0.250801 0.46059,0.143489 0.25288,0.101489 0.96409,0.133184 0.74364,0.03314 1.49127,-0.03452 2.22765,-0.130548 0.1331,-0.02265 0.27202,-0.02289 0.39928,-0.06799 0.0267,-0.0095 -0.0753,-0.02101 -0.0697,-0.04879 0.003,-0.01238 0.42682,-0.01627 0.48508,0.0072 0.50318,0.03627 1.00872,0.02389 1.5113,0.06675 1.06785,0.02318 2.13593,0.02971 3.204,0.03008 0.0708,0.02749 0.45961,-0.973463 0.38883,-1.000958 z" />
      <path
         style="fill:#cce9f4;fill-opacity:1;stroke-width:0.264999"
         id="path8"
         d="m 199.68593,80.071621 c -1.13649,-2.64e-4 -2.25744,0.194183 -3.3684,0.413404 -0.0866,0.03502 0.40862,1.259676 0.49521,1.224658 v 0 c 1.10047,-0.135519 2.19987,-0.309539 3.26202,-0.637103 0.0708,-0.0275 -0.31806,-1.028454 -0.38883,-1.000959 z" />
      <path
         style="fill:#cce9f4;fill-opacity:1;stroke-width:0.264999"
         id="path9"
         d="m 256.26873,91.152456 c 0.0989,-0.02106 0.19922,-0.03599 0.29658,-0.06315 0.26212,-0.07314 0.51558,-0.174606 0.77582,-0.254177 0.40775,-0.124669 0.82355,-0.223729 1.23621,-0.330353 0.2192,-0.06251 0.44106,-0.116367 0.65761,-0.187518 1.07275,-0.352462 2.11971,-0.788681 3.1591,-1.22681 1.63756,-0.690269 1.18592,-0.498591 2.7728,-1.202523 0.91183,-0.376918 1.79695,-0.838719 2.74509,-1.124768 0.5225,-0.157636 1.05989,-0.211285 1.60016,-0.260937 0.17883,-0.0056 0.35792,-0.0055 0.53648,-0.01691 0.47802,-0.03045 0.66314,-0.06985 1.13287,-0.120145 0.52647,-0.05637 1.05526,-0.09391 1.58262,-0.140858 0.75977,-0.02487 1.50088,-0.210582 2.25215,-0.305271 0.45839,-0.05778 0.68734,-0.05731 1.1521,-0.07671 0.42641,-0.0021 0.85279,-0.0096 1.27904,-0.02072 0.10243,-0.0027 0.20507,-0.0019 0.30723,-0.0096 0.0297,-0.0024 0.0911,0.0089 0.087,-0.02058 -0.006,-0.04605 -0.0685,-0.06283 -0.10276,-0.09424 0.0844,0.410858 -0.0661,-0.297834 -0.14083,-0.241988 -0.11475,0.08569 -0.20861,0.350663 -0.29415,0.465518 -0.0432,0.058 -0.098,0.106363 -0.14703,0.159541 -0.2702,0.354441 -0.59128,0.683234 -0.97538,0.916615 -0.7753,0.471085 -1.69301,0.709578 -2.54786,0.980435 -1.9239,0.604543 -3.91497,0.924819 -5.90363,1.224155 -1.10961,0.166584 -2.21595,0.34788 -3.30105,0.636159 -0.70508,0.231622 -1.43226,0.361902 -2.16737,0.450937 -0.90988,0.05716 -1.79405,0.317805 -2.70009,0.396402 -0.31837,0.06306 -0.64499,0.04002 -0.96421,0.09486 -0.30649,0.05265 -0.60895,0.126519 -0.91365,0.188651 -1.52769,0.209486 -2.98824,0.718772 -4.47269,1.112009 0.44991,0.181102 -0.66229,0.04337 -0.51804,0.150768 0.50788,0.378118 0.0993,-0.910469 0.59902,0.525425 0.0295,0.08485 -0.14791,0.208899 -0.0735,0.259313 0.071,0.0481 0.1097,-0.131747 0.16455,-0.19762 0.55369,-1.087665 1.25167,-2.087809 2.1684,-2.904792 0.34801,-0.310144 0.73063,-0.57912 1.09595,-0.86868 1.39152,-0.978244 2.94268,-1.687594 4.58658,-2.126025 1.70589,-0.454959 3.44183,-0.576805 5.19361,-0.681426 0.97404,-0.02096 0.50212,-0.02135 1.44893,-0.0013 0.0731,0.0016 0.21218,0.07759 0.21934,0.0048 0.0126,-0.127727 -0.15522,-0.212325 -0.18667,-0.336756 -0.0226,-0.08952 0.0129,-0.184211 0.0193,-0.276318 0.25016,0.286859 0.41718,0.676794 0.75048,0.860576 0.21208,0.116938 0.4837,-0.02662 0.72501,-0.047 0.37587,-0.03174 0.75134,-0.06853 1.12634,-0.109331 1.18948,-0.129405 2.3717,-0.295206 3.55253,-0.486495 0.20394,-0.03218 0.43123,0.0035 0.61182,-0.09655 0.09,-0.04989 -0.22406,-0.0063 -0.29908,-0.07675 -0.20738,-0.194755 -0.23576,-0.61078 -0.51072,-0.683779 -0.42334,-0.112392 -0.86722,0.125143 -1.29815,0.203547 -1.30436,0.237315 -3.3322,0.675923 -4.5764,0.938292 -3.05148,0.654957 -6.12334,1.211881 -9.15601,1.953553 -1.57033,0.384043 -3.10994,0.792631 -4.63015,1.339295 -0.36728,0.132074 -0.71875,0.304588 -1.07813,0.456882 -0.0995,0.08527 -0.34237,0.13226 -0.2986,0.255799 0.13475,0.380334 0.39724,0.73813 0.73105,0.964806 0.17127,0.116303 0.41402,-0.02061 0.61924,-0.04787 0.67021,-0.08905 1.31319,-0.260982 1.95296,-0.472392 0.6538,-0.320437 0.18011,-0.139034 0.51174,-0.960276 0.0251,-0.06203 0.0272,0.146314 0.0834,0.182575 0.0314,0.02021 0.0551,-0.05038 0.0826,-0.07554 0.0547,-0.04992 0.10936,-0.09979 0.16405,-0.149688 0.10733,-0.05984 0.21611,-0.117145 0.32199,-0.179517 0.59873,-0.352698 0.57088,-0.369113 1.22034,-0.707192 0.61739,-0.321387 1.2562,-0.579668 1.9027,-0.834324 -0.52773,-0.09364 0.68149,-0.09181 0.51788,-0.171079 -0.0978,-0.04736 -0.22512,0.02257 -0.32531,-0.01939 -0.0936,-0.03922 -0.13521,-0.155184 -0.22096,-0.209476 -0.0344,-0.02175 0.0271,0.08145 0.0589,0.106838 0.13272,0.10608 0.28376,0.186947 0.42564,0.280419 0.64446,0.05684 1.25974,-0.06253 1.86543,-0.267261 0.0555,-0.01876 0.22179,-0.03794 0.16637,-0.05705 -0.12755,-0.04398 -0.26932,-0.01659 -0.40398,-0.02487 -0.10483,-0.228656 -0.12092,-0.525333 -0.31449,-0.685969 -0.10584,-0.08784 -0.26943,0.05611 -0.40249,0.09096 -0.27529,0.07211 -0.5489,0.1506 -0.82223,0.22983 -1.558,0.451609 -3.09096,0.965904 -4.62518,1.491911 -1.46649,0.510387 -2.92081,1.054844 -4.35902,1.640115 -0.47315,0.192546 -0.96633,0.373116 -1.40006,0.64937 0.24755,0.294179 0.43383,0.653531 0.74266,0.882544 0.0941,0.06981 0.22789,-0.05521 0.34296,-0.07752 0.80954,-0.156959 0.0909,0.0075 1.03946,-0.166008 0.56873,-0.10406 1.13372,-0.227782 1.70186,-0.335044 1.29568,-0.295246 2.60028,-0.555639 3.88639,-0.891977 0.71181,-0.186153 1.44624,-0.374716 2.10804,-0.703307 -0.11064,-0.101301 -0.73985,-0.870784 -1.15577,-0.807384 -0.53109,0.08095 -2.60111,0.867777 -2.9404,0.996682 -1.89302,0.719217 -1.8081,0.706165 -3.64426,1.49768 -0.47824,0.221329 -0.96091,0.433353 -1.43474,0.663987 -0.16074,0.07824 -1.17139,0.582372 -1.45557,0.809908 -0.0216,0.01728 -0.0169,0.0627 0.002,0.08289 0.26053,0.278836 0.4689,0.65069 0.82097,0.797901 0.19379,0.08103 0.39711,-0.137046 0.59567,-0.205571 1.39983,-0.433104 2.71088,-1.123124 4.11558,-1.539483 0.20306,-0.06019 0.41088,-0.102963 0.61632,-0.154443 0.91392,-0.162835 1.85049,-0.14574 2.75384,-0.368368 0.0483,-0.03619 0.17584,-0.05676 0.14489,-0.108569 -0.20473,-0.342744 -0.41661,-0.723625 -0.76181,-0.924198 -0.22833,-0.13267 -0.52822,0.0076 -0.79193,0.02141 -1.1425,0.0598 -2.25221,0.226242 -3.37744,0.423889 0.98175,0.513043 -1.26841,-0.01876 -1.05716,0.278132 0.22943,0.322438 0.5287,0.666856 0.91382,0.75786 0.37053,0.08756 0.73915,-0.183103 1.10726,-0.280276 0.69615,-0.183764 1.38926,-0.378897 2.08544,-0.562515 0.90505,-0.238707 1.81213,-0.469635 2.7182,-0.704453 2.37081,-0.650547 4.73896,-1.32094 7.06398,-2.122789 0.32198,-0.111043 0.68413,-0.154025 0.9571,-0.357709 0.0891,-0.06646 -0.21872,-0.06081 -0.30853,-0.126238 -0.28775,-0.209616 -0.54263,-0.460975 -0.81394,-0.691462 -1.65872,0.443111 -3.2921,0.985573 -4.88863,1.617268 -0.43817,0.173374 -1.77456,0.718336 -2.28265,1.062956 -0.0808,0.05482 -0.11143,0.160409 -0.16715,0.240612 0.31544,0.285747 0.55009,0.70181 0.94631,0.857242 0.25172,0.09875 0.53115,-0.104148 0.792,-0.175323 0.0449,-0.01225 1.48648,-0.452467 1.60284,-0.564269 0.14809,-0.142283 0.34191,-0.443521 0.1931,-0.585042 -0.38017,-0.36155 -0.96704,-0.407223 -1.45056,-0.610833 -1.28733,0.08587 -2.55547,0.354606 -3.78741,0.731785 -0.28438,0.08707 -0.57757,0.160213 -0.84068,0.298868 -0.11117,0.05859 -0.31674,0.169122 -0.2544,0.278236 0.2342,0.409906 0.66087,0.674349 0.9913,1.011523 1.64003,0.0098 3.26375,-0.236098 4.85946,-0.598585 0.89102,-0.202407 1.89649,-0.485246 2.76436,-0.807903 0.23619,-0.08781 0.46162,-0.202231 0.69244,-0.303345 0.30946,-0.225496 0.62654,-0.42655 1.00155,-0.517586 -0.0295,0.04655 0.21523,-0.06376 0.19341,-0.0031 -0.0121,0.03362 -0.13825,0.01543 -0.10404,0.02574 0.1,0.03016 0.20686,0.03079 0.31111,0.03674 0.66096,0.03772 0.69415,0.02703 1.27245,0.01183 0.50832,0.01773 0.9729,-0.128804 1.45923,-0.235836 0.2533,-0.05575 0.50963,-0.09672 0.76452,-0.144701 0.36538,-0.102817 0.73784,-0.196156 1.09202,-0.335229 0.15054,-0.05911 0.2811,-0.16264 0.43196,-0.220917 0.0518,-0.02003 0.10979,-0.01707 0.16468,-0.02561 1.03837,-0.225439 2.07901,-0.468342 3.00689,-1.002988 0.35627,-0.225719 0.63795,-0.523539 0.87654,-0.866868 -0.054,0.04816 -0.0897,0.145246 -0.16209,0.144473 -0.22277,-0.0024 -0.42816,-0.166081 -0.65057,-0.153141 -0.0818,0.0048 0.10147,0.130908 0.16609,0.18133 0.0795,0.06207 0.16927,0.111562 0.26156,0.152342 0.29611,0.130844 0.39421,0.120734 0.71506,0.164716 0.21166,-0.0011 0.42374,0.01016 0.63498,-0.0033 0.0151,-0.0011 0.33343,-0.05533 0.40747,-0.0951 0.0404,-0.02172 0.12964,-0.04552 0.10769,-0.08584 -0.52535,-0.964962 -0.31539,-0.946169 -0.85563,-0.789308 -0.43062,0.165238 -0.89745,0.182475 -1.33883,0.298442 -0.74603,0.268872 -1.40318,0.703982 -2.06294,1.134451 -1.09176,0.709388 -2.39306,0.945833 -3.63942,1.247397 -0.0848,0.01773 -0.19526,-0.01016 -0.25429,0.05321 -0.0435,0.04669 0.13051,-0.0059 0.19085,0.01487 0.0477,0.0164 0.0932,0.04936 0.11996,0.09208 0.14385,0.2296 0.22862,0.447903 0.0191,0.672185 -0.22355,-0.289092 -0.39329,-0.629336 -0.67066,-0.867275 -0.0797,-0.06838 -0.20933,0.01804 -0.31427,0.02236 -0.89771,0.03691 -1.79483,0.08953 -2.69274,0.129223 -1.53122,0.04466 -3.07437,0.13154 -4.57774,0.443714 -0.27495,0.08717 -0.19492,0.0357 0.25455,0.129148 -0.0603,-0.03844 -0.60386,0.814263 -0.54357,0.852699 v 0 c 0.51187,0.116213 0.29502,0.07661 0.64756,0.134054 1.55495,0.07989 3.10392,-0.142208 4.6539,-0.229857 0.74423,-0.08153 1.47963,-0.173932 2.2153,-0.314095 0.1487,-0.02833 0.2968,-0.05981 0.44495,-0.09091 0.0798,-0.01675 0.24814,0.02836 0.2389,-0.05266 -0.0361,-0.316166 -0.23095,-0.593058 -0.34642,-0.889587 -0.25599,0.235003 -0.24004,0.522399 -0.051,0.803696 0.0572,0.08509 0.14909,0.153468 0.24731,0.182819 0.20032,0.05986 0.65109,0.04871 0.88439,0.04863 0.49765,-0.05048 0.70393,-0.05729 1.22253,-0.181337 1.01745,-0.24338 1.97261,-0.671584 2.82899,-1.272434 0.16268,-0.118134 0.32664,-0.234525 0.48804,-0.354402 0.3314,-0.246134 0.68801,-0.598998 1.09212,-0.717018 0.52289,-0.0082 1.0308,-0.137266 1.50679,-0.353057 0.46452,-0.219295 0.0654,0.0286 -0.26829,-0.981324 -0.0122,-0.03685 0.10826,-0.04443 0.0873,-0.07708 -0.005,-0.0077 -0.27029,-0.01167 -0.34763,-0.0059 -0.009,7.94e-4 0.0168,0.0076 0.0252,0.0114 -0.16766,0.0024 -0.33536,-0.0096 -0.50301,-0.0062 -0.0364,7.94e-4 -0.0777,-0.0034 -0.10796,0.01696 -0.0171,0.01154 0.0116,0.06597 -0.009,0.06139 -0.23945,-0.05442 -0.45712,-0.206513 -0.70213,-0.222906 -0.0907,-0.0061 -0.14665,0.107471 -0.21997,0.161205 -0.20742,0.197072 -0.38266,0.412522 -0.67527,0.49118 -0.979,0.287745 -1.95708,0.591746 -2.89072,1.006999 -0.53239,0.225394 -1.10433,0.29967 -1.65835,0.461979 -0.32374,0.08752 -0.66796,0.218508 -1.00202,0.263485 -0.34626,0.04662 -0.70592,-0.02784 -1.05235,0.02257 -0.15808,0.0073 -0.31616,0.01455 -0.47424,0.02183 -0.0457,0.01209 -0.0902,0.03158 -0.13726,0.03628 -0.41193,0.04113 -0.83926,-0.02603 -1.23857,0.110101 -0.41346,0.146947 -0.62828,0.289091 -1.10069,0.255627 -1.21242,0.150056 -2.40605,0.374663 -3.60136,0.62924 -0.99662,0.212257 -2.39515,0.532953 -3.39065,0.797399 -0.36376,0.09663 -0.72237,0.211687 -1.08355,0.317531 0.007,0.360604 -0.0625,0.730991 0.0213,1.081807 0.0198,0.08305 0.16506,0.0624 0.25014,0.05521 0.30267,-0.02559 0.60063,-0.09246 0.89843,-0.152284 1.20632,-0.242324 2.39852,-0.55804 3.57744,-0.908365 -0.0192,-0.270618 -0.0784,-0.541366 -0.0575,-0.81185 0.0108,-0.140171 0.28603,-0.355415 0.15081,-0.393882 -0.25191,-0.07166 -0.5062,0.136392 -0.75358,0.2224 -0.28968,0.100714 -0.57498,0.214466 -0.85602,0.337217 -0.2369,0.103471 -0.61934,0.09421 -0.69657,0.340913 -0.1124,0.359061 0.16329,0.734555 0.24493,1.101834 0.11041,0.01625 0.22068,0.06414 0.33121,0.04875 0.66556,-0.09267 1.97563,-0.531598 2.5021,-0.718129 1.62771,-0.57671 3.23584,-1.239258 4.71905,-2.131206 0.17276,-0.456988 0.60094,-0.889447 0.5183,-1.370962 -0.0474,-0.276164 -0.52012,-0.231463 -0.79861,-0.262363 -0.395,-0.04383 -0.79689,-0.0053 -1.19155,0.04154 -2.51657,0.298566 -4.95626,1.063429 -7.36241,1.820433 -2.21713,0.856592 -2.63454,0.913202 -4.55908,1.999092 -0.36434,0.205575 -0.887,0.306162 -1.04636,0.692959 -0.15802,0.383564 0.0545,0.85648 0.25941,1.217192 0.20618,0.362977 1.1976,-0.44794 1.2523,-0.0092 1.12299,-0.138173 2.24649,-0.278733 3.34437,-0.563459 0.24567,-0.06371 0.62686,0.0013 0.72496,-0.232722 0.26149,-0.623851 0.0301,-0.82056 -0.24603,-1.07751 -0.42627,0.0159 -0.84447,0.06831 -1.26883,0.108892 -0.99344,0.09501 0.0258,-0.01823 -1.0123,0.07679 -0.20659,0.01892 -0.41253,0.04436 -0.6188,0.06655 -0.23692,0.05033 -0.47581,0.09216 -0.71075,0.151008 -1.46724,0.367514 -2.88247,0.99814 -4.22054,1.691992 -0.17521,0.113596 -0.49191,0.13472 -0.52563,0.340791 -0.0846,0.517043 0.0161,1.153279 0.53429,1.106487 0.51859,-0.04683 1.30334,-0.296621 1.73446,-0.43897 0.51606,-0.170394 1.02406,-0.364273 1.53609,-0.546412 1.62601,-0.674383 2.01282,-0.807902 3.60944,-1.579938 0.62539,-0.302406 1.9653,-0.977191 2.61089,-1.41673 0.24328,-0.165637 0.68465,-0.267944 0.68082,-0.562242 -0.004,-0.345647 -0.46543,-0.511228 -0.69813,-0.766842 -0.78387,-0.0038 -1.55235,0.144896 -2.31824,0.305948 -1.2934,0.271979 -2.56191,0.636725 -3.81416,1.058236 -0.73197,0.218371 -1.47053,0.409987 -2.20324,0.623964 -0.1658,0.04842 -0.3306,0.101004 -0.49236,0.161583 -0.11918,0.04463 -0.34566,0.02648 -0.34948,0.153676 -0.011,0.36467 0.20892,0.699114 0.31339,1.04867 0.58021,-0.0047 1.14323,-0.143054 1.70598,-0.277717 1.54896,-0.370652 3.06919,-0.848132 4.5547,-1.423553 1.49018,-0.593215 2.97875,-1.186866 4.41784,-1.898333 0.27144,-0.134196 0.54356,-0.268896 0.80169,-0.427191 0.17171,-0.105301 0.41801,-0.171204 0.4843,-0.361418 0.10265,-0.294579 -0.0216,-0.623533 -0.0324,-0.935299 -0.1748,-0.01955 -0.34865,-0.05136 -0.52439,-0.05865 -0.27288,-0.01132 -0.65641,0.110334 -0.91771,0.168071 -0.11582,0.02559 -0.24399,0.01905 -0.34737,0.07719 -0.0315,0.01773 0.0535,0.04869 0.0803,0.07304 0.0321,0.07715 0.0714,0.151673 0.0963,0.231437 0.005,0.01585 -0.0241,-0.02291 -0.0351,-0.03532 -0.0945,-0.106278 -0.15319,-0.259191 -0.28143,-0.320662 -0.32141,-0.154064 -0.95099,-0.02566 -1.27777,0.03188 -0.20946,0.06293 -0.4225,0.11498 -0.62838,0.188788 -1.19894,0.429818 -2.30089,1.119878 -3.16196,2.062258 -0.13267,0.23083 -0.28948,0.426357 -0.29905,0.705318 -0.005,0.133721 -0.0374,0.489008 0.0597,0.396933 0.16345,-0.155022 0.35396,-0.656436 0.1288,-0.663424 -0.0948,-0.0029 -0.18916,0.01484 -0.28375,0.02225 -0.65729,0.107516 -1.31494,0.226472 -1.95093,0.430125 -0.19662,0.06296 -0.53228,0.02077 -0.57818,0.222051 -0.0831,0.364268 0.0793,0.770213 0.28005,1.085311 0.0835,0.131101 0.30671,0.05086 0.46007,0.0763 0.41512,-0.03236 0.83217,-0.04566 1.24537,-0.09708 1.64452,-0.20465 3.20714,-0.519467 4.83422,-0.860566 3.05518,-0.640484 6.08194,-1.39945 9.08893,-2.236761 1.64471,-0.503785 2.85006,-0.81794 4.40561,-1.483087 0.71316,-0.304946 1.92278,-0.655008 1.65548,-1.822963 -0.0746,-0.32589 -1.29613,-0.309367 -1.4582,-0.317418 -0.35291,0.02093 -0.70683,0.02879 -1.05873,0.06275 -1.24534,0.120189 -2.50201,0.329324 -3.69342,0.720582 -0.22873,0.07511 -0.60641,0.04208 -0.66789,0.274846 -0.0881,0.333383 0.22462,0.652031 0.33693,0.978048 0.519,-0.219085 0.58187,-0.692356 0.30556,-1.166283 -0.4082,-0.70014 -2.41625,-0.740561 -2.86815,-0.774652 -0.5743,0.007 -1.15014,-0.02167 -1.72289,0.02098 -2.66977,0.198766 -5.19042,0.946158 -7.46184,2.37744 -0.47994,0.302422 -0.9198,0.66421 -1.37969,0.996315 -0.37341,0.361421 -0.77145,0.699019 -1.12022,1.084263 -0.8277,0.914233 -1.50648,2.044221 -1.79417,3.251274 0.006,0.138652 -0.2041,0.237672 -0.18158,0.374597 0.10968,0.667017 0.31895,0.591555 0.79044,0.607372 0.20664,0.0069 0.45147,-0.02217 0.65114,-0.03922 1.54217,-0.233947 3.03849,-0.67583 4.51856,-1.161259 0.10915,-0.03696 0.56997,-0.200369 0.73908,-0.236977 0.29682,-0.06425 0.6116,-0.03773 0.91222,-0.05702 0.95225,-0.02611 1.89146,-0.170789 2.82419,-0.361866 0.74616,-0.149971 1.48396,-0.337888 2.23053,-0.48605 1.07439,-0.220175 2.15972,-0.358825 3.25371,-0.439729 0.91719,-0.08522 1.84135,-0.163457 2.75033,-0.316677 1.1769,-0.19838 2.34,-0.491768 3.46597,-0.887662 0.36359,-0.146576 0.73477,-0.275598 1.09078,-0.439729 1.14303,-0.52696 1.95385,-1.109104 2.61304,-2.180371 0.14747,-0.227076 0.56326,-0.852183 0.56377,-1.119055 2.6e-4,-0.150354 -0.0577,-0.295129 -0.0865,-0.442695 -0.0814,-0.08458 -0.15114,-0.182142 -0.24415,-0.253738 -0.16461,-0.126709 -0.36724,-0.152437 -0.5647,-0.180277 -0.66475,-0.09372 -1.33863,-0.07389 -2.00717,-0.04305 -1.14617,0.09795 -2.2737,0.316847 -3.4178,0.426837 -1.08678,0.09845 -2.17386,0.197331 -3.26249,0.273208 -0.61116,0.06327 -1.22643,0.119581 -1.82952,0.241782 -1.0442,0.211582 -2.06119,0.543253 -3.05093,0.93408 -0.46085,0.196828 -0.92757,0.380468 -1.38256,0.590489 -1.62275,0.749056 -3.16092,1.681758 -4.82499,2.341004 -0.77038,0.234243 -1.55883,0.424431 -2.27719,0.800888 -0.0654,0.03756 0.46581,0.961838 0.53117,0.92428 z" />
      <path
         style="fill:#cce9f4;fill-opacity:1;stroke-width:0.264999"
         id="path10"
         d="m 263.89339,86.308464 c -0.34792,-0.01606 -0.67428,-0.159136 -1.01746,-0.200641 -0.44955,-0.05437 -0.93562,-0.02647 -1.35687,0.154532 -0.0885,0.03804 -0.16464,0.100206 -0.24695,0.15031 -0.0389,0.04782 -0.0851,0.09056 -0.11675,0.143457 -0.21999,0.367536 0.26787,0.878184 0.4078,1.112528 0.0245,0.04109 0.0939,0.0186 0.14122,0.0258 0.0603,0.0092 0.12213,0.009 0.18141,0.02318 0.13663,0.03274 0.2699,0.0782 0.40485,0.117301 0.89113,0.244546 1.81273,0.340897 2.73398,0.233865 0.48565,-0.05642 1.03789,-0.189172 1.47628,-0.426892 0.12664,-0.06867 0.22621,-0.178446 0.3393,-0.267671 0.13836,-0.58261 0.13433,-0.337854 -0.54743,-1.274606 -0.19073,-0.26207 -0.64255,-0.266012 -0.89821,-0.275183 -0.57607,-0.02066 -0.80303,0.0464 -1.36974,0.140285 -0.39612,0.119771 -0.71506,0.191172 -1.07718,0.387054 -0.18398,0.09952 -0.3515,0.221019 -0.4512,0.408011 -0.0307,0.05754 -0.082,0.126148 -0.0581,0.186804 0.13639,0.345659 0.34715,0.657124 0.52073,0.985686 0.0561,0.0065 0.22485,0.01754 0.16838,0.01934 -0.43901,0.01392 -0.43485,-0.02928 -0.65825,-0.597405 -0.0371,-0.0944 0.0507,-0.208214 0.0169,-0.303826 -0.014,-0.03934 -0.0841,-0.0092 -0.12519,-0.0021 -0.0531,0.0093 -0.10228,0.03379 -0.15341,0.05069 -0.0473,0.02479 -0.0964,0.04637 -0.14189,0.07441 -0.40604,0.250446 -0.35544,0.602892 -0.20447,1.122296 0.037,0.127328 0.18497,0.190032 0.27746,0.285046 0.0965,0.08496 0.18485,0.180078 0.28939,0.254871 0.29172,0.208703 0.66717,0.389794 0.99205,0.53041 0.46257,0.200213 0.81657,0.325318 1.30595,0.454686 0.22904,0.06055 0.46218,0.104357 0.69327,0.156538 0.60702,0.105138 0.80922,0.172421 1.42282,0.154252 0.64597,-0.01913 0.99232,0.04693 1.47736,-0.269152 0.22487,-0.146542 0.28699,-0.296389 0.42835,-0.515959 0.009,-0.226401 0.0745,-0.457414 0.0281,-0.679204 -0.0225,-0.107283 -0.13694,-0.173199 -0.2212,-0.243297 -0.0333,-0.02772 -0.11561,-0.0856 -0.12276,-0.04286 -0.0517,0.309394 0.0619,0.639924 -0.0273,0.940658 -0.03,0.101118 -0.24905,0.03022 -0.28954,0.127608 -0.0281,0.06755 0.12877,0.06947 0.19316,0.104204 0.31053,0.120081 0.61794,0.157059 0.94869,0.124962 0.47272,-0.04587 0.0837,-0.025 0.46557,-0.114019 0.1337,-0.03117 0.27032,-0.04807 0.40548,-0.0721 0.27024,-0.211011 0.29449,-0.190439 0.36073,-0.74993 0.009,-0.07909 -0.0826,-0.136184 -0.12435,-0.204009 -0.006,-0.0096 0.0128,0.01871 0.0168,0.0292 0.0348,0.09258 0.11914,0.182761 0.0992,0.279622 -0.0371,0.179792 -0.17146,0.324646 -0.2572,0.486971 -0.0159,0.01569 -0.0583,0.02756 -0.0476,0.04709 0.013,0.0236 0.0534,0.0073 0.08,0.01164 0.17426,0.0284 -0.007,0.0094 0.21082,0.0094 0.11727,-1.1e-5 0.15218,0.01058 0.27302,0.02917 0.39583,0.03582 0.73065,-0.116065 1.09682,-0.228979 0.0522,-0.01341 0.10406,-0.02861 0.15672,-0.04028 0.0523,-0.01159 0.10594,-0.01696 0.15804,-0.02948 0.22803,-0.05479 0.47573,-0.145809 0.67087,-0.27814 0.0656,-0.04446 0.12175,-0.101375 0.18262,-0.152061 0.14604,-0.105117 0.24918,-0.256678 0.38961,-0.3678 0.14226,-0.112583 0.32046,-0.175181 0.48642,-0.241414 0.077,-0.0356 0.15349,-0.07219 0.2309,-0.106802 0.33593,-0.150204 0.12965,-0.03628 0.43588,-0.23087 0.0527,-0.03348 0.107,-0.06445 0.1584,-0.09984 0.16117,-0.110982 0.0483,-0.06407 0.18313,-0.109437 0.0312,-0.0029 0.0622,-0.0094 0.0935,-0.0087 0.043,0.0011 0.0855,0.01045 0.1284,0.01389 0.0437,0.0035 0.31211,0.01887 0.35188,0.01722 0.15419,-0.0064 0.18276,-0.02246 0.32122,-0.06202 0.0396,-0.02014 0.0811,-0.03698 0.11886,-0.06044 0.26871,-0.166954 0.33035,-0.303196 0.39479,-0.633356 0.008,-0.04286 -0.006,-0.169874 -0.0215,-0.129218 -0.0178,0.04546 0.01,0.09713 0.015,0.145701 -0.0151,0.07299 -0.0302,0.145973 -0.0454,0.218961 -0.0106,0.02918 -0.0245,0.05735 -0.0318,0.08754 -0.005,0.01953 -0.007,0.05668 0.0241,0.05939 0.0122,0.0011 0.0847,-0.01527 0.10202,-0.01897 -0.0358,-0.0053 0.0581,0.0032 0.0436,0.0019 -0.10632,-0.0098 -0.21374,-0.0113 -0.31898,-0.02935 -0.0159,-0.0027 -0.025,-0.02058 -0.0367,-0.03166 -0.13673,-0.129035 -0.0825,-0.06699 -0.18479,-0.256371 -0.0218,-0.392184 -0.0421,-0.133331 0.0479,-0.434652 0.004,-0.01246 0.005,-0.02687 2.7e-4,-0.03902 -0.002,-0.0056 -0.0114,-0.0033 -0.0172,-0.0049 0.0269,-0.01863 0.0481,-0.05596 0.0808,-0.05586 0.16508,5.29e-4 0.32792,0.03836 0.49188,0.05755 0.0136,-0.01164 0.0422,-0.01709 0.0408,-0.03495 -0.006,-0.08005 -0.15873,-0.362765 -0.17684,-0.392961 -0.13649,-0.227542 -0.23967,-0.362387 -0.44542,-0.536771 -0.091,-0.07716 -0.19498,-0.137652 -0.29247,-0.206478 -0.0938,-0.04595 -0.18432,-0.09928 -0.28139,-0.137832 -0.31816,-0.126342 -0.7054,-0.156015 -1.03821,-0.101709 -0.0933,0.01521 -0.25561,0.141409 -0.33731,0.199967 -0.048,0.0013 -0.0883,0.04431 -0.13686,0.03508 -0.003,-5.29e-4 -0.008,-0.0031 -0.007,-0.0056 0.004,-0.0059 0.0105,-0.01167 0.0174,-0.0113 0.1072,0.0057 0.21381,0.01961 0.32071,0.02941 0.0264,0.01955 0.11128,0.06644 0.0793,0.05866 -0.0674,-0.0164 -0.12054,-0.07996 -0.18967,-0.08552 -0.24005,-0.01934 -0.51343,0.02482 -0.72722,0.146674 -0.0534,0.03043 -0.10207,0.06841 -0.15311,0.102622 -0.17826,0.153376 -0.31108,0.345067 -0.37285,0.572862 -0.008,0.0308 -0.0263,0.06305 -0.0184,0.09396 0.005,0.02064 0.0185,-0.0384 0.0277,-0.0576 0.16452,-0.214464 0.12081,-0.185756 0.46318,-0.191805 0.009,-1.56e-4 0.0191,0.0089 0.0196,0.01765 2.6e-4,0.0062 -0.0128,0.0019 -0.0186,-2.65e-4 -0.043,-0.01577 -0.0844,-0.03534 -0.12663,-0.053 -0.15641,-0.01696 -0.3122,-0.0412 -0.46923,-0.05088 -0.0922,-0.0057 -0.18478,0.0021 -0.27713,0.0049 -0.1745,0.0052 -0.38672,0.01069 -0.55902,0.04503 -0.22204,0.04426 -0.25493,0.07264 -0.44519,0.16292 -0.16104,0.132096 -0.0981,0.06113 -0.19876,0.203637 -0.069,0.04135 0.51571,1.017301 0.58472,0.975955 v 0 c 0.11511,0.07248 0.0448,0.04061 0.21943,0.07399 0.0751,-0.0033 0.15059,-7.94e-4 0.22516,-0.0098 0.18282,-0.0222 0.33827,-0.06522 0.50844,-0.136178 0.0649,-0.02707 0.12728,-0.06041 0.18752,-0.09669 0.0267,-0.01609 0.0981,-0.0424 0.0721,-0.05968 -0.0695,-0.04622 -0.16288,-0.03656 -0.24432,-0.05484 0.005,-0.01167 0.001,-0.03411 0.0139,-0.03502 0.0287,-0.0021 0.0543,0.0191 0.0817,0.02809 0.0396,0.01302 0.0774,0.03648 0.11907,0.0379 0.20834,0.0071 0.40996,0.02577 0.58608,-0.09292 0.0679,-0.04575 0.12331,-0.107702 0.18496,-0.161552 0.0342,-0.04949 0.0657,-0.101074 0.10277,-0.148469 0.0112,-0.01434 0.0279,-0.02339 0.0413,-0.03565 0.0623,-0.05674 0.11848,-0.119645 0.16902,-0.187076 0.0116,-0.0141 0.0231,-0.02824 0.0347,-0.04235 0.009,-0.0114 0.023,-0.02032 0.028,-0.03418 0.002,-0.0056 -0.004,-0.01445 -0.0103,-0.0145 -0.1166,-7.93e-4 -0.23428,0.02901 -0.34959,0.0118 -5.3e-4,-8.2e-5 -0.3335,-0.219599 5.3e-4,-0.0016 0.13159,0.01405 0.26261,0.03531 0.39478,0.04215 0.0428,0.0021 0.0856,-0.0074 0.12785,-0.01511 0.16521,-0.03016 0.32195,-0.101156 0.45311,-0.205579 10e-4,0.02841 0.005,0.0481 -0.0554,0.05471 -0.11494,0.01257 -0.23133,-0.0039 -0.3469,8.2e-5 -0.004,1.35e-4 -0.003,0.0088 -5.3e-4,0.01177 0.0242,0.02719 0.0513,0.05168 0.0784,0.07595 0.0434,0.03882 0.0887,0.07547 0.13301,0.11321 0.39463,0.328967 0.79797,0.647465 1.21382,0.949293 0.20489,0.04488 0.40567,0.116917 0.61467,0.134626 0.0673,0.0057 0.12923,-0.04009 0.19148,-0.06632 0.15355,-0.0647 0.3028,-0.235098 0.34395,-0.393327 0.0277,-0.106735 0.007,-0.220461 0.0103,-0.330692 -0.0352,-0.07221 -0.0596,-0.150746 -0.10561,-0.21664 -0.18983,-0.272188 -0.52886,-0.262152 -0.82689,-0.230206 -0.16891,0.0204 -0.31651,0.05821 -0.44738,0.178649 -0.0484,0.04454 -0.0984,0.09109 -0.12891,0.149362 -0.0457,0.08725 -0.0637,0.186357 -0.0955,0.279533 0.003,0.06335 0.01,0.126603 0.0104,0.190039 2.6e-4,0.02896 -0.0165,-0.05845 -0.009,-0.08642 0.0312,-0.11575 0.07,-0.23041 0.12323,-0.337836 0.0401,-0.08107 0.14907,-0.126945 0.11139,-0.171813 -0.0194,-0.02312 -0.0556,-0.02355 -0.0835,-0.03534 -0.13964,-0.02077 -0.17893,-0.03323 -0.3262,-0.02543 -0.25862,0.01368 -0.50643,0.09245 -0.75966,0.138499 -0.0703,0.01624 -0.14026,0.03374 -0.2108,0.04878 -0.0702,0.01495 -0.14207,0.02222 -0.21126,0.04122 -0.10868,0.02983 -0.40237,0.139226 -0.49941,0.190704 -0.20905,0.1109 -0.31307,0.204703 -0.49522,0.347612 -0.066,0.06206 -0.13435,0.12179 -0.19813,0.186179 -0.0469,0.04737 -0.0866,0.101592 -0.13367,0.148813 -0.14068,0.14111 -0.30173,0.255823 -0.47828,0.347308 -0.0412,0.01783 -0.0831,0.03391 -0.12343,0.05351 -0.0508,0.02466 -0.20871,0.113263 -0.26591,0.1398 -0.13646,0.06331 -0.28152,0.104392 -0.42685,0.141457 -0.31312,0.05858 -0.6309,0.08657 -0.94179,0.157512 -0.19391,0.05906 -0.39201,0.102407 -0.57463,0.192183 -0.0987,0.165629 -0.24987,0.309695 -0.29597,0.496887 -0.025,0.101637 0.0612,0.200496 0.10035,0.297556 0.009,0.02106 0.0498,0.07521 0.0416,0.05401 -0.0236,-0.06115 -0.10039,-0.111168 -0.0884,-0.175591 0.0876,-0.470953 0.11877,-0.485087 0.31434,-0.705445 0.0781,-0.0236 0.19013,-0.0021 0.23435,-0.07083 0.0288,-0.0446 -0.0911,-0.05581 -0.14094,-0.07405 -0.0743,-0.02718 -0.15142,-0.04717 -0.22923,-0.06139 -0.32455,-0.05932 -0.64896,-0.03687 -0.96911,0.03807 -0.085,0.02572 -0.16877,0.05607 -0.25506,0.07713 -0.17544,0.04281 -0.44174,-0.04347 -0.52958,0.114321 -0.1543,0.277217 -0.0392,0.633336 -0.0627,0.949735 -2.2e-4,0.0029 -0.006,-0.0021 -0.007,-0.0048 -0.0286,-0.05739 -0.0824,-0.109977 -0.0819,-0.174104 0.002,-0.196607 0.0589,-0.388795 0.0883,-0.583192 0.0205,-0.06119 0.0828,-0.122621 0.0615,-0.183552 -0.0385,-0.110366 -0.49807,-0.230476 -0.5053,-0.235403 -0.0258,-0.01759 0.0857,-0.06746 0.0555,-0.07556 -0.36709,-0.09846 -0.76839,-0.01016 -1.13393,-0.11937 -0.19949,-0.04484 -0.3996,-0.08701 -0.59847,-0.134506 -0.42088,-0.100518 -0.83754,-0.21817 -1.25935,-0.314952 -0.44209,-0.105431 -0.75779,-0.189645 -1.20966,-0.221509 -0.16655,-0.01175 -0.33393,0.0013 -0.50089,0.0019 -0.0603,0.0542 -0.16125,0.08394 -0.18086,0.1626 -0.0633,0.253984 -0.047,0.521713 -0.055,0.783351 -5.3e-4,0.01696 0.0135,0.0369 0.0299,0.04124 0.086,0.02273 0.32966,-0.07821 0.40099,-0.109127 0.0574,-0.0346 0.11903,-0.06295 0.17214,-0.103801 0.15609,-0.120074 0.39209,-0.390205 0.36394,-0.586502 -0.098,-0.683654 -0.31008,-0.691153 -0.80361,-0.66987 -0.0231,0.0011 -0.0353,0.02991 -0.0529,0.04486 0.1343,0.329412 0.27206,0.657434 0.40291,0.988232 0.0181,0.04575 0.005,0.11117 0.0437,0.140954 0.0718,0.05465 0.16783,0.06949 0.25631,0.08731 0.52338,0.1054 1.05827,0.01431 1.57779,-0.06149 0.21586,-0.05319 0.43509,-0.09421 0.64758,-0.159579 0.36692,-0.112873 0.74387,-0.258939 1.05252,-0.496014 0.12687,-0.09745 0.35139,-0.179927 0.33929,-0.339447 -0.0686,-0.90346 -0.25326,-0.972452 -0.72555,-1.338845 -0.17113,-0.06198 -0.33604,-0.14497 -0.51337,-0.185944 -0.87241,-0.20157 -1.81702,-0.144864 -2.67138,0.112181 -0.28602,0.08605 -0.56128,0.208465 -0.82719,0.344496 -0.19218,0.09831 -0.36083,0.237032 -0.54125,0.355547 -0.0924,0.07053 -0.18167,0.145235 -0.27707,0.211584 -0.0372,0.0259 -0.082,0.0395 -0.11984,0.06445 -0.0188,0.01241 -0.0557,0.02522 -0.0489,0.04671 0.10518,0.333592 0.25576,0.651266 0.37287,0.980863 0.0128,0.03597 -0.0101,0.08544 0.0159,0.113403 0.0448,0.04825 0.11659,0.06131 0.17489,0.09196 0.10159,0.02323 0.20125,0.05778 0.30479,0.06968 0.45162,0.05191 0.91959,-0.0097 1.3368,-0.192934 0.11122,-0.04885 0.26238,-0.07509 0.31393,-0.185084 0.0309,-0.06598 -0.1033,-0.10278 -0.15495,-0.15417 0.0742,0.01905 0.34367,-1.030433 0.26946,-1.049486 z" />
      <path
         style="fill:#cce9f4;fill-opacity:1;stroke-width:0.264999"
         id="path11"
         d="m 252.70854,90.931222 c -0.15438,0.0051 -0.30869,0.0259 -0.46159,0.04679 -0.0836,0.01143 -0.16832,0.01765 -0.25039,0.03724 -0.22694,0.05421 -0.28829,0.09748 -0.49177,0.197041 -0.0614,0.04545 -0.12714,0.08558 -0.18425,0.136339 -0.11512,0.102328 -0.0967,0.106323 -0.15486,0.221708 -0.16828,0.333785 -0.31517,0.452996 0.11968,0.922795 0.10345,0.111771 0.30359,0.02477 0.45539,0.03715 -0.21394,0.0048 -0.40693,0.07218 -0.54328,-0.165795 -0.074,-0.129128 -0.0892,-0.2851 -0.1122,-0.432131 -0.006,-0.04022 0.0169,-0.07967 0.0259,-0.11937 0.004,-0.01712 0.0216,-0.03587 0.0129,-0.0511 -0.006,-0.01061 -0.0217,0.01125 -0.0326,0.01685 -0.0297,-0.0021 -0.006,-0.003 -0.0523,0.03564 -0.0236,0.01971 -0.0452,0.0424 -0.0717,0.05808 -0.0679,0.04022 -0.053,7.94e-4 -0.1309,0.01934 -0.0345,0.0082 -0.0657,0.02673 -0.0986,0.0401 -0.1102,0.05533 -0.1998,0.136202 -0.2771,0.230656 -0.0485,0.05922 -0.038,0.03463 -0.0515,0.07539 0.34356,0.03349 -0.0927,-0.01119 0.86736,0.494586 0.0117,0.0061 0.0144,-0.02207 0.0226,-0.03238 0.008,-0.0105 0.0202,-0.01828 0.0269,-0.02996 0.0116,-0.02035 0.0671,-0.14705 0.0792,-0.174437 0.0313,-0.09329 0.10526,-0.226362 0.0965,-0.325811 0.002,-0.0031 0.002,-0.0098 0.005,-0.0092 0.003,5.29e-4 -0.003,0.01159 -5.3e-4,0.0099 0.0198,-0.0113 0.0334,-0.03109 0.0506,-0.04601 0.009,-0.0075 0.0179,-0.03053 0.0262,-0.02254 0.009,0.0088 -0.008,0.02384 -0.0125,0.03574 0.029,0.02252 0.0519,0.0013 0.0826,-0.01106 0.0787,-0.03148 0.12495,-0.09251 0.18412,-0.153215 0.0996,-0.127606 0.15198,-0.27223 0.15144,-0.435509 -2.7e-4,-0.08385 -0.0299,-0.14282 -0.0506,-0.218453 -0.0156,-0.03236 -0.0261,-0.06773 -0.0469,-0.09708 -0.0421,-0.05958 -0.0864,-0.118798 -0.14031,-0.167907 -0.19138,-0.174268 -0.4751,-0.160309 -0.71293,-0.129045 -0.0228,0.0021 -0.0457,0.004 -0.0685,0.006 -0.0192,0.0028 -0.0384,0.0064 -0.0577,0.0082 -0.0161,0.0016 -0.0647,0.0026 -0.0486,0.0019 0.52135,-0.02394 0.30681,-0.06983 0.24441,0.01196 -0.004,0.004 -0.006,0.0097 -0.0109,0.01212 -0.006,0.003 -0.0143,2.01e-4 -0.0205,0.0031 -0.004,0.0019 -0.005,0.0067 -0.008,0.01003 -0.24043,0.07348 -0.49186,0.117641 -0.72128,0.220437 -0.0402,0.01799 -0.0265,0.08435 -0.0465,0.123563 -0.0131,0.02574 0.0171,-0.05518 0.0257,-0.08276 0.0311,-0.04817 0.0622,-0.09633 0.0933,-0.144497 -0.009,0.0057 -0.0206,0.02593 -0.0259,0.01707 -0.006,-0.0099 0.0292,-0.0338 0.0189,-0.02882 -0.0815,0.03926 -0.13937,0.149249 -0.18373,0.21662 -0.0485,0.118991 -0.0817,0.251103 -0.049,0.379442 0.006,0.024 -0.003,-0.04946 -0.003,-0.07423 -1e-5,-0.06938 0.0257,-0.06422 -0.001,-0.06805 -0.0809,0.01815 -0.0956,0.130525 -0.11632,0.196025 -0.0335,0.106087 -0.0117,0.03507 -0.0359,0.114639 -0.0229,0.07453 -0.0264,0.17201 -0.0415,0.227726 -0.006,0.01937 -0.0216,0.03851 -0.0169,0.05812 0.004,0.01699 0.0131,-0.03238 0.0191,-0.04878 0.001,-0.0034 -0.003,0.0064 -0.005,0.0097 -0.01,0.02286 -0.0211,0.04523 -0.0293,0.06878 -0.011,0.03177 -0.0171,0.06507 -0.028,0.09688 -0.004,0.01101 0.004,-0.02286 0.007,-0.03428 -0.0317,0.06052 -0.041,0.129183 -0.0608,0.193553 -0.003,0.0097 -0.009,0.01794 -0.0128,0.02745 -0.0278,0.08603 -0.0146,0.04852 -0.0385,0.11298 -0.10969,0.544883 0.34975,0.284655 1.03265,0.356357 0.0241,-0.05785 0.0368,-0.119042 0.042,-0.181327 0.005,-0.06398 -0.0143,-0.05616 0.0228,-0.08229 0.008,-0.0094 0.0185,-0.01722 0.0245,-0.02814 0.0698,-0.128527 0.0367,-0.09681 0.0986,-0.228486 0.0105,-0.02233 0.0259,-0.04206 0.0378,-0.06367 0.042,-0.07614 0.0484,-0.09384 0.0846,-0.172524 0.0659,-0.130011 0.099,-0.27132 0.16613,-0.400431 0.042,-0.112527 0.0993,-0.228299 0.13101,-0.339984 -0.006,0.0058 -0.01,0.01357 -0.017,0.01736 -0.002,0.0011 -0.003,-0.0076 -0.005,-0.0058 -0.008,0.0083 -0.0256,0.03947 -0.019,0.02971 0.0121,-0.01807 0.0187,-0.04111 0.0358,-0.05461 0.0589,-0.04657 -0.0436,0.06455 -0.0663,0.08958 -0.11736,0.09322 -0.13566,0.09863 -0.0363,0.04427 0.0606,-0.04047 -0.51178,-0.896731 -0.57233,-0.85626 v 0 c 0.0759,-0.05005 0.0433,-0.02867 -0.0969,0.06568 -0.1262,0.117771 0.009,-0.01506 -0.11591,0.130135 -0.007,0.0077 0.022,-0.03374 0.0149,-0.02646 -0.0167,0.01738 -0.0287,0.03884 -0.0445,0.0571 -0.0988,0.114417 0.0761,-0.115258 -0.0832,0.101399 -0.0218,0.04096 -0.0463,0.08191 -0.0626,0.125775 -0.0155,0.04192 -0.0254,0.09513 -0.045,0.135549 -0.001,0.0028 5.3e-4,-0.0062 7.9e-4,-0.0093 -0.10986,0.141121 -0.23955,0.267803 -0.31705,0.432059 -0.0771,0.14663 -0.14028,0.285226 -0.17456,0.449199 -0.0399,0.190622 0.007,0.03118 -0.008,0.180541 -0.004,0.03749 -0.0142,0.07404 -0.0214,0.111056 -0.003,0.03515 -0.005,0.07039 -0.009,0.105458 -0.007,0.06903 -0.0304,0.150328 5.3e-4,0.217191 0.3397,0.0526 0.67992,0.101984 1.01911,0.157795 0.007,0.0011 0.0101,0.01146 0.0172,0.0127 0.034,0.006 0.0728,-0.157205 0.0762,-0.174834 0.0283,-0.201295 0.009,-0.0131 0.009,-0.149497 6e-5,-0.02403 0.008,-0.04812 0.005,-0.07196 -0.003,-0.02098 -0.024,0.02931 -0.0265,0.02817 -0.008,-0.0037 0.005,-0.01654 0.008,-0.02479 0.007,-0.02537 0.0171,-0.05023 0.0224,-0.07616 0.004,-0.01802 -0.0112,0.03503 -0.0175,0.0523 -0.004,0.01056 -0.0179,0.02098 -0.013,0.03108 0.004,0.0089 0.0113,-0.01638 0.0158,-0.02524 0.0425,-0.08461 0.0368,-0.119576 0.0417,-0.07926 0.0531,-0.09096 0.0906,-0.190384 0.14306,-0.281983 0.0493,-0.137517 0.081,-0.27669 0.0742,-0.423973 0.003,-0.03342 0.0114,-0.112004 0.0118,-0.129159 8e-4,-0.03348 -0.006,-0.06704 -0.003,-0.100431 0.002,-0.02511 0.007,0.05026 0.005,0.07539 -0.007,0.09265 -0.0202,0.113916 -0.05,0.196837 -0.019,0.02836 -0.0383,0.05641 -0.0568,0.08507 -0.003,0.0052 -0.005,0.01154 -0.009,0.01632 -0.006,0.0072 -0.0272,0.025 -0.02,0.01918 0.0986,-0.0797 0.0897,-0.08656 0.18771,-0.222666 0.0131,-0.03551 0.0389,-0.06867 0.0393,-0.106521 5.3e-4,-0.03553 -0.006,0.08588 -0.0392,0.0991 -0.60011,0.240638 -0.92913,0.08477 -0.59662,0.272367 0.0256,0.01143 0.0503,0.02551 0.0769,0.03431 0.21274,0.07022 0.44426,0.0173 0.66183,-0.0079 0.13585,0.0011 -0.15436,-7.93e-4 -0.242,-0.01492 -0.0155,-0.0024 -0.022,-0.02244 -0.033,-0.03357 -0.0878,-0.08815 -0.0823,-0.07172 -0.15634,-0.203525 -0.009,-0.01646 -0.0122,-0.03575 -0.0183,-0.05363 0.005,0.01119 0.006,0.02646 0.016,0.03359 0.007,0.0048 -0.002,-0.01641 -0.003,-0.02463 -0.004,-0.03225 -0.0134,-0.06433 -0.0115,-0.09677 0.007,-0.119528 0.0471,-0.213601 0.10539,-0.315566 0.0148,-0.01871 0.0359,-0.03381 0.0444,-0.05608 0.003,-0.0067 -0.0142,-0.0069 -0.0211,-0.0048 -0.0746,0.02151 -0.15079,0.07211 -0.21253,0.116689 -0.0276,0.01992 -0.0539,0.04162 -0.0809,0.06243 -0.0317,0.03305 -0.0646,0.06505 -0.0952,0.09916 -0.0763,0.08504 -0.12742,0.190776 -0.18933,0.285668 -0.0245,0.03818 -0.0526,0.07403 -0.0757,0.113033 -0.0654,0.110276 -0.10752,0.233286 -0.14215,0.356021 -0.004,0.02742 -0.007,0.05483 -0.0109,0.08225 0.002,0.01389 0.005,0.02772 0.005,0.04169 -0.001,0.02342 -0.007,0.04635 -0.009,0.06969 -0.001,0.01323 -0.0117,0.03226 -7.9e-4,0.03985 0.80613,0.560821 0.52087,0.639984 0.87143,0.530619 0.0124,-0.004 0.0241,-0.01122 0.0371,-0.01199 0.007,-5.29e-4 0.0136,0.0057 0.0204,0.0086 0.0181,-0.0036 0.0362,-0.0072 0.0544,-0.01077 0.0912,-0.02685 0.17775,-0.06848 0.25836,-0.118404 0.0319,-0.02405 0.066,-0.04532 0.0956,-0.07218 0.0867,-0.07882 0.0781,-0.0868 0.14229,-0.158404 0.008,-0.0093 0.0256,-0.0024 0.0366,-0.0085 0.0281,-0.01566 0.0535,-0.03579 0.0802,-0.05368 0.0893,-0.0739 0.24009,-0.231637 0.23789,-0.353713 -0.005,-0.289253 -0.0334,-0.584221 -0.3511,-0.681837 -0.11708,-0.03597 -0.24495,0.0021 -0.36742,0.0032 0.13091,0.01476 0.31077,-0.05883 0.39274,0.0443 0.86662,1.09025 0.11582,0.385519 0.10428,0.878102 -7.9e-4,0.02966 0.056,0.02167 0.0855,0.02461 0.1228,0.01222 0.21226,-0.01373 0.33511,-0.03506 0.082,-0.02611 0.16599,-0.04652 0.24591,-0.07836 0.28213,-0.112373 0.56409,-0.292367 0.73456,-0.549039 0.0628,-0.04036 -0.50798,-0.929058 -0.57082,-0.888696 z" />
    </g>
    <g
       id="g22"
       transform="translate(-54.000002,-40.000011)">
      <circle
         style="fill:#1c1c1c;fill-opacity:1;stroke-width:0.264999"
         id="path20"
         cx="107.32916"
         cy="101.64832"
         r="30" />
      <circle
         style="fill:#d2d2d2;fill-opacity:1;stroke-width:0.264999"
         id="path21"
         cx="107.32916"
         cy="101.64832"
         r="24" />
      <rect
         style="fill:#000000;fill-opacity:1;stroke-width:0.423608"
         id="rect21"
         width="18"
         height="1"
         x="107.32916"
         y="-102.14832"
         transform="scale(1,-1)" />
      <rect
         style="fill:#000000;fill-opacity:1;stroke-width:0.264999"
         id="rect22"
         width="1"
         height="12"
         x="107.32916"
         y="101.14832" />
    </g>
  </g>
</svg>
