<?xml version="1.0" encoding="UTF-8" standalone="no"?>
<!-- Created with Inkscape (http://www.inkscape.org/) -->

<svg
   width="256mm"
   height="48mm"
   viewBox="0 0 256 48"
   version="1.1"
   id="svg1"
   inkscape:version="1.4 (e7c3feb100, 2024-10-09)"
   sodipodi:docname="desk.svg"
   xmlns:inkscape="http://www.inkscape.org/namespaces/inkscape"
   xmlns:sodipodi="http://sodipodi.sourceforge.net/DTD/sodipodi-0.dtd"
   xmlns="http://www.w3.org/2000/svg"
   xmlns:svg="http://www.w3.org/2000/svg">
  <sodipodi:namedview
     id="namedview1"
     pagecolor="#ffffff"
     bordercolor="#000000"
     borderopacity="0.25"
     inkscape:showpageshadow="2"
     inkscape:pageopacity="0.0"
     inkscape:pagecheckerboard="0"
     inkscape:deskcolor="#d1d1d1"
     inkscape:document-units="mm"
     inkscape:zoom="1"
     inkscape:cx="483"
     inkscape:cy="67.5"
     inkscape:window-width="1920"
     inkscape:window-height="1008"
     inkscape:window-x="0"
     inkscape:window-y="0"
     inkscape:window-maximized="1"
     inkscape:current-layer="layer1" />
  <defs
     id="defs1" />
  <g
     inkscape:label="Layer 1"
     inkscape:groupmode="layer"
     id="layer1"
     transform="translate(-14.125156,-33.082603)">
    <rect
       style="fill:#411e0d;fill-opacity:1;stroke-width:0.264999"
       id="rect1"
       width="256"
       height="48"
       x="14.125156"
       y="33.082603"
       rx="2.8640176e-17" />
    <path
       style="fill:#783718;fill-opacity:1;stroke-width:0.264999"
       id="path17"
       d="m 11.735129,45.981794 c 2.673319,-1.311127 5.526677,-2.242629 8.416828,-2.942384 1.238625,-0.299892 2.491254,-0.538675 3.736881,-0.808013 10.296637,-1.991955 20.803545,-2.407579 31.262342,-2.602189 7.831428,-0.02106 15.660259,0.205729 23.482681,0.559829 1.039878,0.04671 2.080167,0.08499 3.119633,0.140129 0.0984,0.0052 5.715458,0.352735 5.864455,0.361074 3.13355,0.175373 6.270778,0.272671 9.406353,0.404076 10.268698,0.309025 20.536378,0.646271 30.804038,0.991279 12.65899,0.375759 25.30093,1.132162 37.95173,1.694327 10.52602,0.381194 21.06037,0.448245 31.59219,0.500213 1.70412,0.0033 3.40827,0.02015 5.11237,0.0099 3.29375,-0.01989 7.77073,-0.123472 11.03451,-0.183916 6.19271,-0.114687 12.38544,-0.199286 18.57875,-0.273412 12.76907,-0.05628 25.53665,-0.207519 38.30471,-0.367027 8.3138,-0.06682 16.62708,-0.186643 24.94103,-0.233606 0,0 -2.858,-2.066412 -2.858,-2.066412 v 0 c -8.12329,0.335229 -16.251,0.506466 -24.37999,0.636803 -6.22775,0.122399 -12.45632,0.25891 -18.68518,0.310668 -6.51638,0.05415 -13.03361,0.01637 -19.54982,0.104943 -11.642,0.104488 -23.2837,0.318177 -34.92632,0.296579 -10.517,-0.03402 -21.03592,-0.08666 -31.54696,-0.480709 C 150.81487,41.567644 138.23681,40.98377 125.65523,40.494113 115.2151,40.053093 104.7774,39.554104 94.33691,39.122633 88.200371,38.808514 82.063869,38.488628 75.926152,38.204011 68.19821,37.892086 60.463796,37.768107 52.729494,37.878305 c -10.531586,0.292532 -21.095403,0.720458 -31.499877,2.501357 -1.289948,0.245964 -2.586139,0.46119 -3.869846,0.737893 -3.041686,0.655635 -6.028029,1.573924 -8.9314698,2.688464 z" />
    <path
       style="fill:#783718;fill-opacity:1;stroke-width:0.264999"
       id="path18"
       d="m 7.1992399,64.308775 c 0.3798594,-0.08743 0.7571489,-0.186888 1.1395784,-0.262284 2.7812237,-0.548322 5.5952867,-0.942541 8.3864967,-1.433446 3.796816,-0.667769 5.450499,-1.00842 9.316878,-1.760112 6.084805,-1.12487 12.13868,-2.419978 18.240888,-3.450874 2.165853,-0.365896 4.338934,-0.687642 6.508001,-1.033983 6.268702,-0.947438 12.595397,-1.391339 18.923968,-1.676734 9.713823,-0.391327 19.438474,-0.184245 29.156319,-0.09656 13.659351,0.20207 27.313091,0.67156 40.955701,1.369314 11.13459,0.712646 22.25401,1.63697 33.3904,2.323932 9.49597,0.548263 18.99688,0.989042 28.50165,1.351042 11.541,0.543536 23.09329,0.770266 34.64021,1.150006 15.24308,0.502 30.49312,0.737505 45.74045,1.068893 5.041,0.110818 10.08147,0.244494 15.12189,0.379802 0,0 -3.02154,-2.196375 -3.02154,-2.196375 v 0 c -4.78573,0.114218 -9.57278,0.1636 -14.35986,0.17091 -15.19865,-0.02101 -30.3975,-0.278418 -45.58208,-0.962161 -11.67064,-0.511761 -23.3475,-0.854754 -35.01551,-1.425523 -9.4743,-0.3989 -18.94854,-0.797061 -28.41816,-1.29767 C 159.76583,55.8527 148.72207,54.945626 137.65721,54.371526 123.97279,53.748528 110.2813,53.252269 96.586475,52.930504 86.731351,52.782601 76.87081,52.440228 67.015962,52.748406 c -6.351643,0.272225 -12.711451,0.657667 -18.994382,1.67596 -2.128634,0.363365 -4.271087,0.718623 -6.391915,1.124752 -6.026351,1.154018 -12.011068,2.52314 -18.056907,3.578305 -3.952014,0.705941 -5.617297,1.035413 -9.508872,1.612285 -3.343966,0.495694 -6.7062993,0.855008 -10.0550186,1.315127 z" />
    <path
       style="fill:#783718;fill-opacity:1;stroke-width:0.264999"
       id="path19"
       d="m 6.2670589,74.625895 c 3.6853912,-1.173001 7.4672231,-2.00098 11.2333431,-2.86485 1.028224,-0.199173 2.056467,-0.398248 3.084672,-0.597516 3.048718,-0.590852 3.581271,-0.726747 6.703601,-1.197735 3.789325,-0.5716 7.598628,-1.029636 11.394898,-1.553014 6.404556,-0.915453 12.782136,-2.037075 19.212013,-2.770526 1.198356,-0.136697 2.399713,-0.245671 3.599567,-0.368509 7.031288,-0.650052 14.096436,-0.729705 21.151916,-0.807641 5.810096,-0.06315 11.621264,-0.04446 17.431011,-0.144094 2.63431,-0.04518 7.07255,-0.176734 9.67399,-0.2495 1.73418,-0.04368 3.46887,-0.06993 5.20251,-0.131048 1.85187,-0.06529 9.3706,-0.434329 11.14231,-0.513778 6.17619,-0.276964 12.35231,-0.473226 18.53222,-0.643575 14.56325,-0.267796 29.13297,0.07487 43.68013,0.776308 3.43975,0.16586 6.87695,0.381072 10.31542,0.571606 18.92438,1.352484 37.85237,2.648111 56.79582,3.702666 11.64342,0.61626 23.28073,1.323295 34.91041,2.158974 2.30225,0.157731 4.60182,0.356738 6.90594,0.486264 0,0 -3.13745,-2.296313 -3.13745,-2.296313 v 0 c -2.15964,-0.02641 -4.31821,-0.103968 -6.47655,-0.180557 -11.36032,-0.438002 -22.7153,-1.009954 -34.07147,-1.541465 -7.25481,-0.36108 -10.22972,-0.491096 -17.56053,-0.931241 -12.99124,-0.779997 -25.97273,-1.717879 -38.95931,-2.569376 -18.1845,-1.013167 -36.39165,-1.95302 -54.61088,-1.773177 -6.14948,0.131381 -6.67525,0.122145 -12.71558,0.329631 -5.72207,0.196556 -11.44063,0.510942 -17.16358,0.679117 -1.74631,0.05132 -3.49344,0.06973 -5.24017,0.104597 -0.52724,0.01127 -9.045463,0.19484 -9.728175,0.204296 -5.856348,0.08112 -11.713588,0.03851 -17.570199,0.04298 -7.070161,0.04073 -14.150181,0.119118 -21.192489,0.817647 -7.618304,0.830844 -15.183218,2.033942 -22.757702,3.189023 -3.822226,0.510923 -7.65679,0.952494 -11.472796,1.50809 -3.237898,0.471424 -3.611375,0.574625 -6.767473,1.164482 -1.041313,0.194614 -2.082715,0.388755 -3.124072,0.583134 -3.886622,0.841978 -7.7722873,1.690041 -11.6513427,2.564421 z" />
    <path
       style="fill:#783718;fill-opacity:1;stroke-width:0.264999"
       id="path20"
       d="m 12.301301,54.879282 c 0.622905,-0.05576 1.535215,-0.132476 2.092041,-0.214498 0.758132,-0.111676 1.510043,-0.26232 2.2665,-0.384828 4.158279,-0.673438 8.314443,-1.357934 12.471659,-2.038694 9.661668,-1.582173 19.402963,-2.580597 29.145792,-3.498128 5.242584,-0.473531 10.493578,-0.830382 15.753879,-1.02076 4.788545,-0.113447 9.580922,-0.156128 14.370153,-0.0607 3.88992,0.07451 7.776165,0.221441 11.662525,0.397992 3.77795,0.183938 7.55806,0.312648 11.33997,0.3723 2.53684,0.02208 5.07966,-0.01377 7.6122,-0.174119 1.8847,-0.193826 3.7714,-0.189678 5.66199,-0.139064 2.87087,0.0757 5.7411,0.14894 8.61283,0.190257 3.38323,-0.0036 6.74802,0.364008 10.11649,0.62439 1.8645,0.144126 3.73024,0.271807 5.59525,0.409252 4.79056,0.238124 9.56014,0.749464 14.34425,1.072754 0.83228,0.03671 1.66434,0.07896 2.49686,0.110129 0.71004,0.02658 4.78368,0.14264 5.44656,0.176083 2.80787,0.141658 5.61437,0.398429 8.41722,0.614038 6.87865,0.710212 13.79958,0.693244 20.70147,0.99283 5.9964,0.344724 11.97792,0.910366 17.96533,1.382085 9.6348,1.024113 19.32764,0.871382 28.99781,0.696287 2.78068,-0.05813 5.56125,-0.121285 8.34203,-0.174372 6.70259,-0.127958 10.57342,-0.191168 17.23394,-0.246672 6.10209,-0.05085 12.20352,-0.02954 18.30542,-0.09927 3.0285,-0.01629 6.05422,-0.14244 9.07907,-0.278704 0,0 -2.90182,-2.079876 -2.90182,-2.079876 v 0 c -2.88351,0.245092 -5.76964,0.45982 -8.66254,0.56272 -14.47883,0.591229 -28.97362,0.718938 -43.46272,0.81722 -2.49655,-0.0046 -4.99325,0.01396 -7.48965,-0.01376 -7.39813,-0.08218 -14.78964,-0.480615 -22.1542,-1.188085 -5.98194,-0.496687 -11.95864,-1.105897 -17.95768,-1.358622 -6.92699,-0.225576 -13.86891,-0.265094 -20.76377,-1.055459 -2.80971,-0.222356 -5.62177,-0.466289 -8.43695,-0.610438 -1.82789,-0.0936 -3.65856,-0.124673 -5.48677,-0.2119 -0.84352,-0.04024 -1.68628,-0.09513 -2.52942,-0.142694 -2.24603,-0.162687 -4.48753,-0.368788 -6.73261,-0.541806 -2.79855,-0.21567 -1.95285,-0.125055 -4.82603,-0.296218 -0.90129,-0.05369 -1.802,-0.116902 -2.703,-0.175353 -1.47592,-0.108469 -4.13187,-0.300672 -5.60478,-0.420928 -3.40377,-0.277904 -6.80368,-0.640357 -10.22253,-0.675188 -2.93676,-0.08798 -5.86971,-0.250985 -8.80647,-0.332995 -1.89162,-0.04468 -3.77836,-0.0041 -5.6633,0.179498 -2.49779,0.155894 -5.00252,0.249022 -7.50533,0.216043 -3.74681,-0.04332 -7.4937,-0.118811 -11.236251,-0.312261 -3.899482,-0.204046 -7.799197,-0.381455 -11.704759,-0.413832 -4.760021,-0.04789 -9.520047,0.07377 -14.279303,0.147208 -2.205151,0.06156 -2.87605,0.06224 -5.032063,0.189823 -3.52552,0.20862 -7.036136,0.614951 -10.547046,0.985529 -9.66557,1.088063 -19.326643,2.225266 -28.948609,3.656556 -4.298191,0.617597 -8.590443,1.241871 -12.905945,1.726439 -0.801625,0.09001 -1.602305,0.190991 -2.406124,0.258668 -0.955925,0.08048 -1.3860912,0.06582 -2.2525156,0.06277 z" />
    <path
       style="fill:#783718;fill-opacity:1;stroke-width:0.264999"
       id="path21"
       d="m 11.514077,80.549741 c 0.585254,-0.254838 1.083028,-0.481517 1.717386,-0.683506 1.381975,-0.440039 3.74418,-1.002823 5.018925,-1.280543 3.663039,-0.798042 5.590362,-1.101286 9.413833,-1.785729 8.487826,-1.407102 16.967337,-2.88249 25.501235,-3.991112 5.111768,-0.664059 8.145187,-0.943994 13.269229,-1.473893 8.535342,-0.774267 17.10037,-1.26686 25.669748,-1.437037 4.0435,-0.0803 6.645291,-0.03944 10.648547,-0.01458 8.89236,0.221419 17.78373,-0.09557 26.67546,-0.129767 8.82625,-0.0563 17.64435,0.387127 26.45312,0.891267 8.49177,0.494681 16.99048,0.88079 25.4702,1.557809 8.39535,0.7415 16.77327,1.654878 25.17235,2.353325 9.22902,0.687269 18.42528,1.732484 27.646,2.512449 8.9685,0.736722 17.9645,1.001036 26.95567,1.279898 5.03254,0.156086 9.6373,0.308767 14.66236,0.473144 6.31439,0.206555 12.62778,0.442098 18.94071,0.689118 0,0 -2.74754,-2.005047 -2.74754,-2.005047 v 0 c -6.1,-0.01148 -12.19986,-0.07228 -18.29821,-0.223001 -13.98226,-0.369155 -27.98184,-0.697796 -41.91598,-1.992929 -9.25917,-0.871596 -18.50425,-1.895954 -27.77816,-2.608183 -8.41253,-0.713634 -16.80396,-1.639319 -25.21397,-2.381973 -8.46846,-0.655666 -16.95577,-1.005731 -25.43349,-1.52196 -8.80909,-0.486423 -17.62667,-0.919477 -26.4521,-0.867309 -8.85714,0.02682 -17.71265,0.325138 -26.57078,0.204216 -3.858151,0.01863 -6.626309,0.0097 -10.515718,0.123682 -8.533836,0.250103 -17.061855,0.788035 -25.565655,1.534848 -5.340848,0.557384 -7.936228,0.793488 -13.264899,1.489001 -8.596349,1.122018 -17.143867,2.578939 -25.718806,3.846306 -3.654424,0.557477 -6.207156,0.921581 -9.77355,1.552493 -1.625422,0.287544 -3.693622,0.677013 -5.347432,1.106249 -1.0680068,0.277196 -1.1189796,0.322183 -1.9490762,0.665337 z" />
    <path
       style="fill:#783718;fill-opacity:1;stroke-width:0.264999"
       id="path22"
       d="m 26.201053,83.579784 c 4.131108,-0.70997 8.242374,-1.533221 12.373474,-2.248133 5.288377,-0.987044 10.641438,-1.557115 15.991437,-2.084289 2.257293,-0.230077 4.526153,-0.33759 6.78525,-0.543105 2.033371,-0.184984 4.06151,-0.446953 6.093579,-0.648637 3.74641,-0.442378 7.513362,-0.62299 11.281987,-0.724268 3.732543,-0.05851 7.466528,-0.08997 11.199098,-0.02283 4.052199,0.03814 8.097136,0.301286 12.140932,0.546068 5.19479,0.270793 10.37105,0.797026 15.55657,1.198825 1.15376,0.110389 2.30939,0.202797 3.4613,0.331171 4.65419,0.518683 9.29377,1.183616 13.94126,1.756492 1.84385,0.227285 12.21562,1.430411 13.68826,1.601737 12.84957,1.619088 25.71811,3.211237 38.45388,5.596628 2.12659,0.398309 4.24111,0.858589 6.36167,1.287886 8.10384,1.795795 16.16099,3.940249 23.93752,6.867289 1.02718,0.386622 2.03754,0.81652 3.05631,1.22478 1.67373,-0.537427 2.75041,2.168909 4.32704,1.986748 0.64187,-0.07416 -1.08347,-0.728937 -1.69231,-0.945287 -0.39983,-0.142076 0.70883,0.46723 1.05144,0.717555 0.73244,0.535146 0.8285,0.657756 1.45714,1.246096 0.41882,0.42843 0.81319,0.87852 1.19592,1.33898 0,0 3.59238,1.52971 3.59238,1.52971 v 0 c -0.39653,-0.48998 -0.82413,-0.9494 -1.25128,-1.41308 -0.80414,-0.78323 -1.64509,-1.52041 -2.61455,-2.10025 -2.90677,-1.738566 -5.56537,-3.278923 -8.71393,-4.440033 -0.98823,-0.379132 -1.9692,-0.777772 -2.9647,-1.137397 -7.6724,-2.77165 -15.58948,-4.843203 -23.56473,-6.527937 -2.09394,-0.406101 -4.18232,-0.84206 -6.28184,-1.218303 -12.73072,-2.281407 -25.58728,-3.774281 -38.39484,-5.537435 -3.89301,-0.498751 -9.99623,-1.269553 -13.97336,-1.819633 -5.92656,-0.819708 -11.83793,-1.786355 -17.79585,-2.358257 -5.23842,-0.446067 -10.46636,-1.031666 -15.717713,-1.308788 -4.065855,-0.247809 -8.132165,-0.516917 -12.206243,-0.574643 -3.723912,-0.06473 -7.448975,0.0016 -11.17265,0.06141 -3.777768,0.09165 -7.552388,0.266901 -11.304677,0.742235 -4.259315,0.454605 -8.517062,0.908056 -12.786937,1.255972 -5.339815,0.545875 -10.679342,1.148302 -15.958534,2.137151 -4.24894,0.720958 -8.485458,1.534207 -12.772897,1.995477 z" />
    <path
       style="fill:#783718;fill-opacity:1;stroke-width:0.264999"
       id="path23"
       d="m 116.71977,29.85436 c 2.68896,0.977725 5.55979,1.323254 8.35609,1.874433 3.27956,0.736725 6.62439,1.093016 9.96682,1.395251 2.13254,0.170988 4.28216,0.329594 6.3696,0.817919 1.82252,0.517525 3.66606,0.954637 5.5118,1.380835 0.3518,0.07809 0.70553,0.147914 1.05539,0.234262 1.72422,0.425554 0.58296,0.21623 2.42392,0.603612 1.32552,0.27892 2.66469,0.506216 3.9966,0.752431 2.51216,0.505641 5.03878,0.918491 7.58803,1.178034 2.43271,0.200114 4.87129,0.325364 7.30261,0.543282 1.94074,0.188122 3.88938,0.270638 5.8356,0.380296 3.41422,0.17761 6.83791,0.05046 10.24995,-0.114694 5.95816,-0.310799 11.87759,-1.05166 17.79543,-1.778632 2.35336,-0.289095 4.70632,-0.581462 7.05947,-0.872194 2.60335,-0.319766 5.20669,-0.639533 7.81004,-0.9593 12.1453,-1.571218 24.29072,-3.141391 36.43945,-4.685913 0.91282,-0.123888 1.82563,-0.247776 2.73845,-0.371664 0,0 -2.84074,-1.996524 -2.84074,-1.996524 v 0 c -0.86307,0.157293 -1.72615,0.314585 -2.58922,0.471878 -11.87599,1.980462 -23.79435,3.710153 -35.74633,5.165453 -11.14555,1.231057 -22.29912,2.585217 -33.51403,2.973724 -3.48309,0.08377 -6.97392,0.152123 -10.45323,-0.077 -1.94718,-0.126322 -3.89654,-0.219692 -5.84026,-0.394502 -2.41148,-0.186992 -4.82929,-0.289053 -7.23843,-0.506927 -2.54451,-0.28928 -5.06654,-0.727093 -7.58148,-1.208256 -1.32969,-0.245437 -2.66659,-0.471628 -3.98611,-0.768557 -1.42539,-0.320757 -1.10121,-0.290057 -2.46355,-0.628245 -0.35316,-0.08767 -0.70925,-0.163057 -1.06388,-0.244586 -1.85178,-0.440694 -3.69919,-0.896895 -5.53697,-1.392497 -2.07264,-0.419283 -4.18577,-0.57069 -6.29362,-0.701278 -3.32579,-0.284517 -6.64411,-0.68304 -9.90814,-1.399345 -2.88818,-0.555746 -5.83341,-0.974959 -8.5769,-2.084052 z" />
  </g>
</svg>
